<?xml version="1.0" encoding="UTF-8"?>
<svg id="uuid-c70cc690-d57f-45d1-afc3-3f913018d12d" data-name="Layer 1" xmlns="http://www.w3.org/2000/svg" viewBox="0 0 21.44 16.98">
  <defs>
    <style>
      .uuid-6e6d2ebd-2dc1-49d6-9983-8489dd925192, .uuid-69889ef3-20fc-40f2-bd6c-535b6d44f0a2 {
        fill: #fb5f66;
      }

      .uuid-69889ef3-20fc-40f2-bd6c-535b6d44f0a2 {
        fill-rule: evenodd;
      }
    </style>
  </defs>
  <path class="uuid-6e6d2ebd-2dc1-49d6-9983-8489dd925192" d="M13.3,8.9l7.56-2.65c.08-.03,.16-.03,.24-.01,.08,.02,.15,.06,.21,.12,.06,.06,.1,.13,.11,.21,.02,.08,.01,.16-.01,.24l-2.69,7.56c-.03,.08-.08,.15-.14,.2-.06,.05-.14,.08-.22,.09-.08,0-.16,0-.24-.05-.07-.04-.13-.1-.17-.17l-1.36-2.39s-.02-.06-.02-.1c0-.03,.01-.07,.03-.09l2.15-2.81s.01-.03,.02-.04c0-.01,0-.03,0-.04v-.02s-.04-.03-.06-.03c-.02,0-.04,0-.06,0h-.02s-2.82,2.14-2.82,2.14c-.03,.02-.06,.03-.09,.03-.03,0-.07,0-.1-.02l-2.4-1.38c-.07-.04-.13-.1-.17-.17-.04-.07-.05-.16-.05-.24,0-.08,.04-.16,.09-.22,.05-.06,.12-.11,.2-.14Z"/>
  <path class="uuid-69889ef3-20fc-40f2-bd6c-535b6d44f0a2" d="M16.34,10.11c-.01-.45-.05-.89-.09-1.34,0,.02,0,.03,0,.05-.23,.07-.44,.22-.63,.45-1.01,1.23-2.21,2.22-3.6,2.99-1.37,.74-2.59,1.12-3.67,1.12-1.68,0-2.82-.55-3.42-1.66,2.83-.7,4.83-1.63,6.01-2.81,1.2-1.2,1.8-2.63,1.8-4.29,0-1.42-.42-2.54-1.26-3.35-.84-.84-1.95-1.26-3.35-1.26-1.56,0-2.96,.42-4.21,1.26-1.22,.84-2.18,1.98-2.88,3.42-.7,1.42-1.04,2.96-1.04,4.61,0,2.38,.7,4.25,2.09,5.62,1.39,1.37,3.35,2.05,5.86,2.05,1.85,0,3.57-.46,5.18-1.37,1.23-.69,2.25-1.43,3.06-2.22,.09-1.09,.18-2.19,.15-3.28Zm-11.98-1.28c0-1.47,.3-2.72,.9-3.75,.62-1.03,1.38-1.55,2.27-1.55,.43,0,.77,.14,1.01,.43,.26,.26,.4,.62,.4,1.08,0,.89-.41,1.67-1.22,2.34-.82,.67-1.93,1.18-3.35,1.51v-.07Z"/>
  <polyline class="uuid-6e6d2ebd-2dc1-49d6-9983-8489dd925192" points="16.19 13.39 17.89 12.25 16.24 8.77"/>
</svg>