<svg width="218" height="240" viewBox="0 0 218 240" fill="none" xmlns="http://www.w3.org/2000/svg">
<path d="M71.0518 61.8677C71.2418 62.464 69.9638 63.4178 68.9176 64.8742C67.8714 66.3306 67.2668 67.7903 66.6752 67.7912C66.3836 67.7839 66.1119 67.2959 66.1089 66.4756C66.1408 65.4193 66.503 64.3995 67.1445 63.5598C67.7633 62.699 68.6339 62.0513 69.6362 61.7059C70.415 61.4731 70.9476 61.6206 71.0518 61.8677Z" fill="#263238"/>
<path d="M84.0441 58.3557C82.0183 56.897 79.552 56.1805 77.0599 56.3265C75.7156 56.4662 74.41 56.946 73.0535 56.9434C70.1275 56.9407 67.7051 54.7896 65.0043 53.6727C63.2484 52.9683 61.3499 52.6928 59.4663 52.8689C57.5827 53.0451 55.7682 53.6679 54.1735 54.6857C51.5433 56.402 49.6285 59.1537 46.7798 60.4622C44.6732 61.4345 42.2256 61.5386 40.1861 62.6624C36.1889 64.7938 34.9888 69.8587 34.4814 74.3495C36.4696 76.8287 39.7738 76.8488 42.9503 76.9287C44.5388 76.9489 46.113 76.6259 47.5652 75.9819C49.0175 75.3378 50.3136 74.3879 51.3651 73.197C52.9895 71.3292 54.27 68.7113 56.7151 68.3943C59.2867 68.0647 61.4472 70.5956 64.0317 70.6922C67.7353 70.8248 69.7669 66.2542 73.1939 64.8419C75.8318 63.7567 78.8127 64.7151 81.6139 65.2904C84.4151 65.8657 87.8639 65.779 89.4849 63.4221C87.8701 61.5316 86.0447 59.8318 84.0441 58.3557Z" fill="#263238"/>
<path d="M55.7384 31.7805C55.2063 31.0931 54.5422 30.519 53.7852 30.0917C53.0282 29.6644 52.1935 29.3926 51.3301 29.2922C50.4666 29.1918 49.5918 29.2649 48.757 29.5071C47.9221 29.7494 47.1441 30.1559 46.4685 30.7028C44.6139 29.6154 42.4118 29.2837 40.3192 29.7766C38.2266 30.2695 36.4041 31.5492 35.2298 33.35C34.1858 35.113 33.8467 37.2123 32.8789 39.0175C31.9112 40.8226 30.4775 42.1209 29.3707 43.7527C28.2639 45.3846 27.5518 47.5092 28.3357 49.3279C29.1842 51.313 31.7192 52.1888 33.8885 51.8609C36.0578 51.5329 37.9464 50.2973 39.7694 49.093C39.5463 49.5969 39.514 50.1647 39.6786 50.6906C39.8432 51.2165 40.1934 51.6646 40.6639 51.9514C41.6428 52.5083 42.793 52.6837 43.8934 52.4439C45.7023 52.1464 47.3941 51.3554 48.7822 50.1579C50.1703 48.9604 51.2009 47.4031 51.7605 45.6573L53.6995 40.8854C54.4383 40.4278 55.0784 39.8274 55.5821 39.1193C56.0859 38.4112 56.4432 37.6096 56.6331 36.7616C56.823 35.9135 56.8417 35.0361 56.688 34.1808C56.5344 33.3255 56.2115 32.5094 55.7384 31.7805Z" fill="#263238"/>
<path d="M53.8336 48.7178C53.6632 49.2211 53.3128 49.6435 52.8497 49.9039C52.3866 50.1643 51.8436 50.2443 51.3251 50.1284C50.8104 49.9901 50.3436 49.7131 49.9756 49.3276C49.6076 48.9421 49.3525 48.4629 49.2383 47.9423C49.0408 46.8941 49.2139 45.8099 49.7281 44.8754C50.2373 43.9422 50.8782 43.087 51.6309 42.3363C52.7283 41.1172 53.9688 40.0351 55.3257 39.1135C55.7969 38.7726 56.3378 38.5401 56.9094 38.4328C57.1967 38.3812 57.4925 38.4079 57.7659 38.5102C58.0392 38.6124 58.2799 38.7864 58.4628 39.0139C58.926 39.6833 58.6279 40.5945 58.3005 41.3376C57.0842 44.1324 55.6157 46.8106 53.9132 49.3388" fill="#FF888D"/>
<path d="M51.5629 49.5697C46.0366 47.798 38.012 53.1626 37.4382 56.7525C35.5535 56.9004 33.7982 57.7681 32.5362 59.1756C31.2743 60.5832 30.6026 62.4226 30.6607 64.3122L22.9057 71.3722C21.5806 72.5804 20.2021 73.8513 19.6278 75.5455C19.0536 77.2397 19.6211 79.4715 21.27 80.1291C18.6116 82.7402 20.0625 88.1098 23.6863 89.0173C23.5857 89.537 23.5925 90.0718 23.7063 90.5888C23.8201 91.1058 24.0385 91.5941 24.3481 92.0235C24.6577 92.4529 25.0519 92.8144 25.5065 93.0857C25.961 93.357 26.4663 93.5325 26.9912 93.6012C26.2317 97.9645 26.2242 102.426 26.9691 106.791C27.264 108.644 27.7976 110.543 29.2176 111.72C30.6375 112.897 33.2134 112.8 33.9718 111.118C33.8908 111.985 34.0614 112.858 34.4634 113.631C34.8654 114.404 35.4817 115.045 36.2385 115.477C34.7539 116.382 35.6419 118.962 37.3111 119.456C38.9802 119.95 40.7147 119.103 42.1745 118.196C43.6342 117.288 45.2337 116.278 46.9634 116.42C47.0578 116.612 47.1122 116.821 47.1232 117.035C47.1342 117.249 47.1016 117.463 47.0274 117.663C45.6554 121.246 47.006 125.279 50.4935 126.867C50.8181 127.011 51.1212 127.144 51.3882 127.262C52.9899 127.967 55.782 127.888 57.5222 127.811C61.9151 127.618 63.77 126.126 67.8773 124.49C68.2585 127.535 77.5349 129.4 81.5159 120.014C97.7567 115.693 108.73 111.283 123.309 102.931C125.394 101.739 127.729 100.019 127.577 97.6259C129.529 97.1073 130.887 95.2761 131.432 93.3362C131.856 91.3663 131.942 89.3388 131.687 87.34C133.181 85.7834 134.157 83.8024 134.48 81.6691C134.803 79.5358 134.457 77.3549 133.491 75.4259C134.155 73.7634 134.467 71.9809 134.405 70.1916C134.344 68.4023 133.91 66.6454 133.133 65.0325C136.016 61.9516 135.325 56.305 131.789 54.0059C128.559 50.1424 124.713 46.8403 120.405 44.2336C122.487 42.3424 121.536 38.6148 119.266 36.9425C116.996 35.2701 114.044 35.1066 111.199 34.9731C113.255 34.4142 113.515 31.2808 112.06 29.7347C110.604 28.1886 108.277 27.8782 106.147 27.8442C103.027 27.7845 99.9118 28.1044 96.8695 28.7967C94.2168 26.1545 88.147 24.8929 84.4125 25.1946C69.341 26.4114 60.2237 29.7779 51.5043 49.5267" fill="#263238"/>
<path d="M51.3811 74.4676C50.5954 73.3257 50.27 71.934 50.4699 70.5705C50.6698 69.207 51.3803 67.972 52.4596 67.1122L73.0109 45.11C80.3445 39.2213 91.9072 45.5374 97.565 53.1114C103.852 61.5262 111.196 72.0381 114.431 79.2447C120.962 93.7533 110.11 102.856 110.11 102.856L116.29 112.411L123.556 123.512C119 134.091 90.0012 133.091 90.0012 133.091L51.3811 74.4676Z" fill="#FFBF9D"/>
<path d="M96.5172 81.4739C96.4385 81.3789 97.445 80.4438 99.1336 79.0167C99.572 78.667 99.9527 78.2919 99.8218 77.9241C99.5498 77.4173 99.1311 77.0046 98.6204 76.7399C97.4521 75.8977 96.2253 75.0124 94.9398 74.0841C89.7304 70.2636 85.6716 67.019 85.8239 66.8104C85.9761 66.6018 90.3157 69.522 95.5034 73.333C96.8034 74.2936 97.9798 75.1824 99.1378 76.0546C99.7955 76.4259 100.301 77.0178 100.564 77.7256C100.602 77.9333 100.593 78.147 100.536 78.3504C100.479 78.5538 100.377 78.7416 100.236 78.8995C100.025 79.1365 99.7852 79.3463 99.5219 79.5238C97.764 80.8343 96.5784 81.5698 96.5172 81.4739Z" fill="#263238"/>
<path d="M109.939 103.217C109.939 103.217 103.261 108.597 91.0133 109.016C91.0133 109.016 99.527 117.481 112.885 107.815L109.939 103.217Z" fill="#F7686D" fill-opacity="0.42"/>
<path d="M76.2918 65.23C76.4347 65.8443 74.4579 66.7913 72.4833 68.4371C70.5088 70.0829 69.1548 71.7868 68.588 71.5285C68.3138 71.4077 68.3165 70.7368 68.7018 69.8037C69.2533 68.6118 70.0682 67.5607 71.0851 66.7297C72.1021 65.8987 73.2944 65.3094 74.5723 65.0065C75.5533 64.8528 76.2022 64.9837 76.2918 65.23Z" fill="#263238"/>
<path d="M63.7062 53.7481C57.4305 57.3043 51.904 62.0438 47.4327 67.704C46.1059 69.3854 44.8246 71.2764 44.7666 73.4221C44.7134 75.3028 45.6044 77.074 46.5798 78.6929C49.6212 83.7379 55.3236 88.7665 60.0103 92.3654L68.5926 92.4421C72.806 88.4139 65.6071 81.287 62.8905 77.1863C64.1364 75.4103 64.8589 73.3203 64.9757 71.154C65.0925 68.9877 64.599 66.8321 63.5512 64.9324C64.4193 63.2007 64.8842 61.295 64.911 59.358C64.9379 57.4211 64.526 55.5032 63.7062 53.7481Z" fill="#263238"/>
<path d="M67.452 90.6299C65.5506 87.8276 61.6431 89.3627 60.0258 92.3291C59.1375 93.9539 59.0494 96.207 61.0475 99.1811C66.3485 107.135 73.2504 100.173 73.1079 99.9289C72.9655 99.6852 69.6696 93.9076 67.452 90.6299Z" fill="#FFBF9D"/>
<path d="M68.6699 98.5406C68.6194 98.5183 68.5872 98.7282 68.4632 99.0096C68.2287 99.3711 67.8625 99.6271 67.4424 99.7229C66.392 99.9752 64.8002 99.1101 63.7998 97.7043C63.3261 97.0342 63.0078 96.267 62.868 95.4585C62.7774 95.1605 62.7605 94.8449 62.8188 94.5389C62.8771 94.2329 63.0088 93.9456 63.2027 93.7018C63.3334 93.5526 63.5126 93.4542 63.7087 93.424C63.9048 93.3938 64.1053 93.4337 64.2749 93.5367C64.5418 93.6543 64.581 93.8783 64.6402 93.8613C64.6994 93.8443 64.7419 93.6304 64.4343 93.3312C64.2563 93.1654 64.0275 93.0646 63.785 93.0451C63.4553 93.0266 63.1315 93.1374 62.8821 93.3537C62.601 93.6376 62.3963 93.9881 62.2872 94.3724C62.1781 94.7567 62.1682 95.1624 62.2583 95.5517C62.3759 96.4688 62.7192 97.3424 63.2575 98.0943C64.3752 99.6638 66.194 100.62 67.5671 100.183C67.8218 100.102 68.0553 99.9661 68.2505 99.7837C68.4457 99.6014 68.5975 99.3776 68.695 99.1289C68.7786 98.7436 68.7051 98.5389 68.6699 98.5406Z" fill="#FF9A6C"/>
<path d="M69.7838 102.547C69.7838 102.547 69.7838 102.547 69.825 102.669C69.8654 102.79 69.8881 102.916 69.8926 103.043C69.9148 103.556 69.7541 104.059 69.4392 104.464C68.9642 105.121 68.3574 105.672 67.6575 106.082C67.2203 106.353 66.7587 106.582 66.2788 106.767C65.738 106.995 65.1645 107.135 64.5797 107.182L64.6305 107.066C64.929 107.83 65.024 108.657 64.9063 109.468C64.7886 110.279 64.4622 111.046 63.959 111.693C63.4559 112.34 62.7934 112.845 62.0363 113.159C61.2792 113.473 60.4535 113.585 59.6402 113.483L59.7656 113.375C59.732 113.895 59.4959 114.382 59.1078 114.731C58.7159 115.083 58.2308 115.315 57.7106 115.399C57.1601 115.494 56.5937 115.405 56.099 115.145C55.6001 114.884 55.1766 114.498 54.869 114.026C54.2514 113.054 53.9962 111.895 54.1485 110.753C54.3218 109.59 54.6351 108.453 55.0816 107.365L55.2102 107.542C54.7415 107.528 54.2811 107.415 53.8588 107.211C53.4365 107.007 53.0619 106.717 52.7592 106.359C52.1178 105.638 51.7023 104.745 51.5645 103.79C51.4561 102.816 51.5364 101.831 51.8011 100.887C52.0671 99.9371 52.3944 99.0049 52.7809 98.0968L52.8784 98.2862C52.3965 98.1423 51.9506 97.8982 51.5696 97.57C51.1886 97.2417 50.8812 96.8368 50.6676 96.3815C50.2039 95.4552 50.0278 94.4114 50.1617 93.3842C50.426 91.4156 51.5247 89.763 52.5301 88.2243L52.5531 88.4067C51.8278 87.6774 51.2918 86.7817 50.9919 85.7978C50.692 84.8138 50.6373 83.7715 50.8326 82.7616C51.0278 81.7516 51.4671 80.8048 52.1121 80.0035C52.7571 79.2022 53.5882 78.5709 54.5332 78.1644L54.4906 78.3783C53.9413 77.7489 53.5439 77.0018 53.329 76.1945C53.114 75.3873 53.0873 74.5414 53.2509 73.7222C53.3747 72.9552 53.663 72.2241 54.096 71.5791C54.5289 70.934 55.0963 70.3903 55.7592 69.9852L55.6925 70.1367C55.2999 69.4241 55.0741 68.6318 55.0321 67.8193C54.9902 67.0068 55.1331 66.1954 55.4502 65.4462C55.7064 64.7813 56.0942 64.1751 56.5905 63.6639C57.0867 63.1526 57.6811 62.7468 58.338 62.4709L58.2776 62.608C57.8827 61.8312 57.6855 60.9689 57.7036 60.0977C57.6971 59.3348 57.8214 58.5766 58.0711 57.8557C58.4377 56.6899 59.1856 55.6812 60.1947 54.9917L60.4887 54.7939C60.5918 54.7359 60.6989 54.6884 60.7956 54.6448C60.9767 54.5534 61.1625 54.4713 61.352 54.3989C61.6511 54.2952 61.9575 54.2142 62.2687 54.1566C62.5144 54.127 62.704 54.1072 62.844 54.0827L63.0409 54.0661C62.9787 54.0877 62.9144 54.1026 62.849 54.1107L62.2785 54.2126C61.9733 54.2774 61.6731 54.3639 61.3802 54.4716C61.1943 54.5438 61.0132 54.6281 60.8383 54.7239L60.5386 54.8762L60.2518 55.0772C59.2854 55.7736 58.5747 56.7682 58.229 57.9081C57.9983 58.6174 57.8865 59.36 57.8981 60.1059C57.881 60.9446 58.0755 61.7741 58.4638 62.5177L58.5145 62.6177L58.4138 62.6508C57.7837 62.9191 57.215 63.3128 56.742 63.808C56.269 64.3032 55.9017 64.8895 55.6626 65.5312C55.364 66.2609 55.2375 67.0495 55.2929 67.8359C55.3483 68.6224 55.5841 69.3855 55.982 70.0661L56.0472 70.1724L55.9441 70.2304C55.3165 70.624 54.7816 71.1488 54.376 71.7688C53.9705 72.3888 53.7039 73.0892 53.5947 73.822C53.44 74.6021 53.4662 75.4074 53.6712 76.1759C53.8763 76.9443 54.2548 77.6556 54.7776 78.2549L54.9046 78.397L54.7351 78.4688C53.8378 78.8642 53.0497 79.4712 52.4385 80.238C51.8273 81.0047 51.4112 81.9082 51.2258 82.8711C51.0404 83.834 51.0913 84.8274 51.3741 85.7663C51.657 86.7052 52.1633 87.5614 52.8497 88.2617L52.9507 88.3062L52.903 88.4144C51.8976 89.9531 50.8324 91.5688 50.5909 93.4269C50.4735 94.3882 50.6437 95.3628 51.0802 96.2273C51.2754 96.6477 51.5577 97.0218 51.9084 97.3249C52.2591 97.6279 52.6701 97.853 53.1144 97.9853L53.2587 98.0489L53.1919 98.2004C52.454 100.012 51.7466 101.872 51.9895 103.745C52.113 104.644 52.5005 105.486 53.1028 106.165C53.3794 106.496 53.7221 106.765 54.109 106.954C54.4958 107.144 54.9181 107.251 55.3487 107.267L55.5464 107.268L55.4669 107.448C55.0255 108.515 54.7159 109.631 54.5448 110.773C54.3923 111.853 54.6285 112.953 55.2112 113.875C55.4632 114.314 55.8398 114.668 56.2931 114.892C56.7465 115.116 57.2562 115.201 57.7578 115.135C58.2275 115.09 58.6682 114.888 59.008 114.56C59.3479 114.233 59.5669 113.8 59.6293 113.332L59.6378 113.215L59.7619 113.227C60.6058 113.315 61.4579 113.171 62.2252 112.808C62.9925 112.446 63.6458 111.88 64.1136 111.172C64.4974 110.566 64.7369 109.88 64.8136 109.167C64.8903 108.454 64.8022 107.733 64.5561 107.059L64.5157 106.955L64.6214 106.95C65.1902 106.908 65.7493 106.779 66.2797 106.569C66.7537 106.391 67.2098 106.168 67.6418 105.903C68.3341 105.508 68.9398 104.978 69.4229 104.344C69.733 103.954 69.9033 103.471 69.9068 102.972C69.8308 102.715 69.7662 102.548 69.7838 102.547Z" fill="#455A64"/>
<path d="M33.2187 112.119C33.0066 112.037 32.8047 111.931 32.6172 111.802C32.0646 111.444 31.5904 110.977 31.2231 110.43C30.6215 109.564 30.3227 108.523 30.3731 107.47C30.4148 106.766 30.603 106.078 30.9256 105.45C31.2483 104.822 31.6982 104.268 32.2468 103.824L32.1959 103.94C31.1009 102.7 30.5167 101.091 30.5613 99.4369C30.5695 98.5188 30.7747 97.6131 31.1629 96.7811C31.6321 95.9378 32.1795 95.1406 32.798 94.3998C33.0929 94.0109 33.3289 93.5807 33.4985 93.1231C33.6647 92.6572 33.7191 92.1587 33.6572 91.668C33.5659 90.6628 33.136 89.6634 33.0956 88.5428C33.0847 87.3802 33.4227 86.2412 34.066 85.2728C34.7093 84.3044 35.6283 83.5513 36.7041 83.1107L36.6119 83.3199C35.8819 82.4032 35.3726 81.3308 35.1233 80.1857C34.8741 79.0407 34.8916 77.8537 35.1744 76.7164C35.4573 75.5792 35.998 74.5223 36.7547 73.6274C37.5114 72.7326 38.4637 72.0239 39.5381 71.556L39.4491 71.758C38.687 70.7234 38.2374 69.4921 38.154 68.2098C38.0705 66.9275 38.3565 65.6482 38.9781 64.5236C39.5997 63.399 40.5309 62.4763 41.661 61.8649C42.7912 61.2535 44.0731 60.979 45.3545 61.0741L45.2283 61.1649C45.5885 59.895 46.2189 58.7179 47.0763 57.7142C47.8234 56.8069 48.6833 55.9987 49.6352 55.3092C51.1632 54.167 52.884 53.3085 54.7155 52.7745C55.882 52.4135 57.0998 52.2457 58.3205 52.2779C58.6417 52.2846 58.9619 52.3163 59.2782 52.3725C59.3862 52.3835 59.4932 52.4019 59.5986 52.4275C59.5986 52.4275 59.1582 52.3713 58.3239 52.3483C57.1125 52.3507 55.9085 52.5379 54.7535 52.9033C52.9492 53.4553 51.2571 54.3229 49.7558 55.4658C48.8184 56.1503 47.9745 56.9545 47.2456 57.8578C46.4197 58.8414 45.8114 59.9887 45.4607 61.2243L45.4225 61.3108L45.3359 61.2727C44.1082 61.1959 42.8841 61.4714 41.8077 62.0667C40.7312 62.6621 39.8472 63.5525 39.2596 64.6333C38.6721 65.714 38.4055 66.9401 38.4911 68.1672C38.5768 69.3943 39.0111 70.5715 39.7431 71.5601L39.8524 71.7031L39.6902 71.778C38.6436 72.2253 37.7149 72.9091 36.977 73.7757C36.2392 74.6423 35.7122 75.6682 35.4376 76.7727C35.1629 77.8772 35.148 79.0304 35.3941 80.1417C35.6401 81.253 36.1404 82.2921 36.8556 83.1774L36.9762 83.334L36.7923 83.3994C35.7774 83.8231 34.9122 84.5404 34.3078 85.4592C33.7033 86.378 33.3872 87.4565 33.3999 88.5562C33.4265 89.6105 33.8491 90.6066 33.9574 91.671C34.0167 92.1999 33.9546 92.7354 33.7758 93.2367C33.5937 93.7125 33.3444 94.1597 33.0355 94.5648C32.4252 95.2954 31.8832 96.0804 31.4162 96.91C31.034 97.7077 30.8294 98.5788 30.8167 99.4633C30.7596 101.057 31.3041 102.613 32.3421 103.823L32.4096 103.905L32.3313 103.965C31.7995 104.389 31.3617 104.919 31.0458 105.522C30.7299 106.124 30.5428 106.786 30.4964 107.464C30.4263 108.497 30.6971 109.525 31.267 110.389C31.621 110.93 32.0752 111.4 32.6051 111.771C33.0086 112.009 33.225 112.105 33.2187 112.119Z" fill="#455A64"/>
<path d="M113.356 64.1895C113.241 64.1157 113.144 64.0184 113.069 63.9039C112.995 63.7895 112.946 63.6605 112.925 63.5256C112.87 63.2026 112.898 62.871 113.005 62.5615C113.17 62.1492 113.414 61.7737 113.725 61.4568C114.108 61.0728 114.436 60.6374 114.7 60.1632C114.95 59.5744 115.003 58.9201 114.849 58.299C114.685 57.577 114.379 56.8947 113.95 56.2916C113.526 55.6309 112.984 55.0042 112.546 54.1994C111.612 52.6421 111.343 50.6712 110.74 48.7165C110.44 47.7013 109.939 46.7567 109.267 45.9393C108.923 45.507 108.491 45.154 107.999 44.9043C107.506 44.6547 106.966 44.5143 106.414 44.4929C105.234 44.5896 104.07 44.8288 102.947 45.2052C102.335 45.3692 101.699 45.43 101.067 45.3849C100.417 45.3077 99.7963 45.0697 99.2612 44.6926C98.2452 43.8807 97.3179 42.9638 96.4945 41.957C96.0647 41.475 95.5649 41.0602 95.012 40.7265C94.4533 40.4096 93.806 40.2848 93.1696 40.3713C92.3109 40.6125 91.4848 40.9573 90.7095 41.3982C90.2916 41.5994 89.8437 41.7309 89.3834 41.7875C88.9169 41.8323 88.447 41.7503 88.0233 41.5501C87.2517 41.121 86.5455 40.5835 85.9263 39.954C85.3159 39.3878 84.5907 38.9595 83.8 38.6983C83.0505 38.4409 82.2556 38.3419 81.4657 38.4077C80.6759 38.4734 79.9083 38.7025 79.2117 39.0804C77.9064 39.7981 76.92 40.982 76.4498 42.3955L76.3799 42.5542L76.2212 42.4843C75.1599 41.7485 73.9539 41.2474 72.6837 41.0146C71.4135 40.7817 70.1082 40.8224 68.8549 41.1339C67.8103 41.3987 66.827 41.8638 65.9596 42.5033C65.2171 43.0383 64.5752 43.7006 64.0637 44.4595C63.3534 45.5373 62.9663 46.7958 62.948 48.0864C62.9384 48.4253 62.9561 48.7644 63.0009 49.1005L63.0169 49.3575L62.982 49.4368L62.9601 49.3497L62.9192 49.0904C62.8629 48.7522 62.838 48.4095 62.8447 48.0667C62.8248 46.7548 63.1946 45.4664 63.9073 44.3647C64.4163 43.5807 65.0651 42.897 65.8214 42.3476C66.7027 41.6845 67.704 41.1983 68.7701 40.9157C70.0544 40.5887 71.3937 40.5402 72.6983 40.7732C74.0029 41.0063 75.2425 41.5155 76.3342 42.2669L76.1398 42.3364C76.6193 40.8558 77.6444 39.6132 79.0068 38.8609C79.7358 38.4538 80.5416 38.2029 81.3728 38.1241C82.2041 38.0454 83.0427 38.1406 83.8351 38.4036C84.6579 38.677 85.4134 39.1215 86.052 39.7079C86.6537 40.3171 87.3361 40.8409 88.08 41.2649C88.4741 41.4252 88.8992 41.4948 89.3238 41.4687C89.7485 41.4425 90.1618 41.3212 90.5333 41.1138C91.3274 40.6522 92.1791 40.2974 93.0661 40.0586C93.7656 39.966 94.4761 40.1038 95.0903 40.4509C95.6727 40.7934 96.1976 41.2253 96.6459 41.7308C97.4566 42.7231 98.3691 43.6277 99.3684 44.4297C99.8597 44.7864 100.435 45.0101 101.038 45.0792C101.642 45.123 102.248 45.0673 102.834 44.9142C103.978 44.5311 105.165 44.293 106.369 44.2056C106.968 44.2121 107.557 44.3679 108.082 44.6589C108.587 44.9392 109.037 45.3097 109.409 45.7522C110.103 46.594 110.618 47.5684 110.922 48.6159C111.527 50.6058 111.77 52.5568 112.67 54.0734C113.113 54.8285 113.629 55.4953 114.057 56.1664C114.485 56.8077 114.786 57.5253 114.943 58.2803C115.097 58.9362 115.03 59.6242 114.753 60.2382C114.487 60.714 114.151 61.1469 113.756 61.5223C113.447 61.824 113.2 62.184 113.031 62.5814C112.918 62.8764 112.882 63.195 112.924 63.5079C112.981 63.7798 113.135 64.0219 113.356 64.1895Z" fill="#455A64"/>
<path d="M121.876 46.053C121.81 46.0353 121.747 46.0075 121.689 45.9703L121.189 45.6381C120.744 45.3385 120.108 44.9034 119.294 44.3464C118.48 43.7894 117.485 43.0753 116.264 42.3651C114.923 41.5035 113.366 41.0384 111.772 41.0232C110.898 41.0516 109.95 41.246 109.029 41.3826C108.528 41.4488 108.021 41.4485 107.521 41.3817C106.992 41.3124 106.487 41.1138 106.053 40.8036C105.164 40.1796 104.581 39.216 103.752 38.5149C103.346 38.1631 102.843 37.9416 102.309 37.8791C101.741 37.8398 101.17 37.8938 100.619 38.0389C100.034 38.1932 99.4365 38.2932 98.8333 38.3376C98.1948 38.3598 97.5649 38.1846 97.0296 37.8358C96.0481 37.0262 95.1807 36.0875 94.4509 35.0453C94.0614 34.5536 93.574 34.1482 93.0197 33.8546C92.7386 33.7208 92.4339 33.6437 92.1229 33.628C91.812 33.6122 91.501 33.658 91.2078 33.7626C89.985 34.1716 89.0445 35.2306 87.7461 35.7527C87.0784 35.9986 86.3506 36.0303 85.6641 35.8433C85.0162 35.6444 84.3939 35.3701 83.8098 35.0263C83.226 34.7087 82.6557 34.3799 82.0681 34.1296C81.5005 33.8715 80.8773 33.7598 80.2554 33.8047C79.0045 33.9256 78.0315 34.8237 77.1543 35.6607C76.3257 36.5804 75.3054 37.3073 74.1654 37.7901C73.0481 38.1182 71.8798 38.2372 70.7193 38.1413C69.6459 38.0207 68.5634 38.0025 67.4865 38.0867C65.5933 38.4808 63.8586 39.4248 62.4996 40.8005C61.3671 41.9217 60.5039 43.2855 59.9753 44.7889C59.5878 45.9284 59.3791 47.1211 59.3565 48.3245C59.3533 49.0857 59.4163 49.8457 59.5446 50.596L59.6298 51.1849L59.6505 51.3922L59.6018 51.1898L59.4814 50.6025C59.3325 49.8504 59.2539 49.086 59.2468 48.3193C59.248 47.0999 59.4417 45.8884 59.8206 44.7293C60.3425 43.2021 61.2073 41.8147 62.3487 40.6737C63.7298 39.2584 65.4993 38.2842 67.4337 37.874C68.5161 37.7352 69.6095 37.7033 70.6981 37.7787C71.8271 37.8658 72.9624 37.7472 74.049 37.4286C75.1423 36.9594 76.1211 36.2591 76.9181 35.3756C77.367 34.934 77.8487 34.527 78.3592 34.1582C78.8935 33.7559 79.5283 33.5086 80.1939 33.4432C80.8595 33.3778 81.5303 33.497 82.1327 33.7875C82.7397 34.0561 83.3319 34.3572 83.9064 34.6897C84.4689 35.0237 85.0697 35.2885 85.6958 35.4782C86.3218 35.6563 86.9884 35.63 87.5985 35.4033C88.8322 34.9302 89.7727 33.8713 91.0633 33.4061C91.7274 33.1735 92.4564 33.2128 93.0915 33.5157C93.6814 33.8254 94.1992 34.2561 94.611 34.7797C95.4595 35.7481 96.1243 36.8596 97.1271 37.5169C97.6173 37.8409 98.1969 38.0028 98.7841 37.9799C99.3693 37.9392 99.9496 37.846 100.518 37.7014C101.102 37.5446 101.709 37.4912 102.311 37.5436C102.901 37.6099 103.458 37.8551 103.905 38.2463C104.775 38.9912 105.347 39.9412 106.181 40.5326C107.016 41.071 108.026 41.2694 109.004 41.0872C109.959 40.9913 110.866 40.7707 111.787 40.7542C113.406 40.785 114.983 41.2683 116.342 42.1494C117.563 42.8773 118.538 43.6171 119.357 44.1845C120.175 44.7519 120.776 45.2063 121.222 45.5235C121.424 45.6726 121.581 45.785 121.705 45.8742C121.77 45.9263 121.827 45.9863 121.876 46.053Z" fill="#455A64"/>
<path d="M108.054 42.5631L108.19 42.4506C108.338 42.3568 108.508 42.3012 108.683 42.2889C109.022 42.3034 109.352 42.4004 109.644 42.5713C109.937 42.7423 110.183 42.9821 110.362 43.2698C110.602 43.6877 110.784 44.136 110.903 44.6026C111.038 45.1484 111.247 45.6729 111.526 46.1609C111.906 46.6743 112.414 47.0793 112.999 47.3355C113.627 47.6121 114.298 47.9078 114.98 48.2947C115.352 48.4901 115.674 48.7681 115.922 49.1072C116.17 49.4464 116.337 49.8378 116.41 50.2515C116.558 51.1092 116.402 51.9711 116.554 52.8569C116.781 53.7417 117.339 54.5056 118.113 54.991C118.871 55.5578 119.762 56.0193 120.567 56.6756C120.986 56.9999 121.342 57.3991 121.616 57.8531C121.882 58.3301 122.046 58.857 122.097 59.4007C122.136 60.4934 122.073 61.5875 121.907 62.6684C121.73 63.7533 121.965 64.8652 122.567 65.7852C123.351 66.6203 124.232 67.3585 125.191 67.984C125.666 68.3541 126.071 68.8068 126.386 69.3204C126.676 69.847 126.842 70.433 126.871 71.0336C126.86 72.1699 126.717 73.3011 126.446 74.4046C126.206 75.4489 126.181 76.531 126.371 77.5854C126.659 78.5915 126.875 79.6168 127.018 80.6536C127.065 81.1739 126.988 81.6979 126.792 82.1825C126.589 82.6425 126.307 83.0636 125.96 83.4268C125.638 83.7674 125.336 84.1263 125.055 84.5017C124.811 84.8781 124.617 85.2852 124.479 85.7124C124.265 86.5454 124.16 87.4024 124.165 88.2624C124.143 89.1142 124.146 89.9084 124.071 90.6851C123.938 92.0921 123.354 93.4183 122.405 94.4659C121.71 95.262 120.844 95.8907 119.872 96.3049C119.257 96.5646 118.604 96.725 117.939 96.7801C117.709 96.8012 117.478 96.803 117.247 96.7855C118.133 96.7468 119.003 96.5465 119.817 96.1945C120.764 95.773 121.605 95.146 122.28 94.359C123.178 93.3183 123.721 92.0181 123.829 90.6475C123.898 89.8851 123.895 89.091 123.906 88.2432C123.889 87.3583 123.988 86.4751 124.202 85.6164C124.329 85.1635 124.519 84.731 124.768 84.3321C125.051 83.9455 125.357 83.5769 125.685 83.2284C126.014 82.8846 126.281 82.4857 126.472 82.0498C126.647 81.5989 126.717 81.1135 126.675 80.6314C126.524 79.6083 126.305 78.5964 126.019 77.6026C125.819 76.5162 125.842 75.4007 126.085 74.3233C126.342 73.2507 126.473 72.1521 126.477 71.0493C126.454 70.4934 126.3 69.9507 126.029 69.4648C125.738 68.981 125.358 68.5564 124.909 68.2131C123.929 67.5718 123.031 66.8142 122.233 65.9568C121.881 65.4845 121.651 64.9334 121.562 64.3514C121.481 63.7763 121.472 63.1934 121.534 62.6159C121.722 61.5704 121.823 60.511 121.835 59.4487C121.782 58.9437 121.628 58.4543 121.384 58.0091C121.125 57.5825 120.792 57.2054 120.401 56.8955C119.629 56.2623 118.745 55.804 117.968 55.2204C117.147 54.6926 116.56 53.8693 116.328 52.9208C116.163 51.9863 116.332 51.1132 116.207 50.2826C116.142 49.8995 115.99 49.5365 115.763 49.2213C115.536 48.9061 115.24 48.6473 114.897 48.4647C114.257 48.0792 113.559 47.8237 112.944 47.5006C112.334 47.2234 111.809 46.7898 111.421 46.2438C111.137 45.7433 110.927 45.2041 110.799 44.643C110.694 44.1823 110.524 43.7389 110.294 43.3261C110.129 43.0468 109.899 42.8116 109.623 42.6405C109.347 42.4695 109.034 42.3678 108.711 42.344C108.475 42.3522 108.247 42.4283 108.054 42.5631Z" fill="#455A64"/>
<path d="M92.2127 87.7018C92.1713 87.3704 92.259 87.0358 92.4575 86.7672C92.656 86.4986 92.9503 86.3166 93.2793 86.259C95.3652 85.8857 97.4511 85.5125 99.5473 85.1351L100.243 85.0024C100.612 86.2095 100.82 87.46 100.862 88.7215C100.873 89.2661 100.764 89.8064 100.545 90.3049C100.325 90.8034 99.9994 91.2479 99.5903 91.6075C98.8583 92.1093 97.9852 92.3645 97.0981 92.336C95.6594 92.2965 94.2331 92.1505 93.2874 91.0704C92.5924 90.2816 92.3664 88.6828 92.2127 87.7018Z" fill="#F7686D" fill-opacity="0.42"/>
<path d="M64.1144 104.048C63.7664 104.478 63.4918 104.963 63.3015 105.482C62.7457 106.914 62.72 108.498 63.2293 109.948C63.5664 110.952 64.1316 111.865 64.8805 112.614C65.7548 113.459 66.8157 114.085 67.9773 114.444C69.2605 114.85 70.6264 114.921 71.9448 114.65C73.3667 114.351 74.6646 113.628 75.6672 112.577C76.6786 111.539 77.3774 110.237 77.6839 108.821C77.9678 107.499 77.8616 106.123 77.3783 104.861C76.9754 103.798 76.3336 102.842 75.5026 102.066C74.6716 101.291 73.6736 100.717 72.5855 100.388C71.7397 100.177 70.8603 100.139 69.9993 100.274C69.3522 100.361 68.7204 100.538 68.122 100.799C67.7446 100.968 67.3939 101.191 67.081 101.461C66.9656 101.548 66.8699 101.658 66.8002 101.785C67.2086 101.425 67.6759 101.139 68.1817 100.938C69.5579 100.386 71.0725 100.279 72.5126 100.632C73.5514 100.965 74.501 101.53 75.2898 102.283C76.0787 103.037 76.6861 103.959 77.0664 104.982C77.5169 106.184 77.6111 107.491 77.3378 108.746C77.0352 110.094 76.3646 111.332 75.4006 112.321C74.4502 113.319 73.2219 114.009 71.8748 114.3C70.6137 114.564 69.3062 114.504 68.0748 114.125C66.9582 113.789 65.9356 113.197 65.0888 112.396C64.3643 111.686 63.8114 110.821 63.4724 109.865C62.9674 108.47 62.953 106.944 63.4314 105.539C63.7989 104.529 64.1545 104.074 64.1144 104.048Z" fill="#E0E0E0"/>
<path d="M82.6668 77.3357C82.9667 77.7867 83.0775 78.3375 82.9752 78.8694C82.873 79.4013 82.566 79.8717 82.1203 80.1795C81.9113 80.3431 81.6717 80.4632 81.4156 80.5327C81.1594 80.6022 80.892 80.6196 80.6289 80.5841C80.3659 80.5485 80.1127 80.4606 79.8842 80.3256C79.6558 80.1905 79.4567 80.011 79.2987 79.7978C79.0008 79.3461 78.8913 78.796 78.9934 78.2647C79.0955 77.7334 79.4012 77.263 79.8452 76.954C80.0533 76.7883 80.2928 76.6664 80.5493 76.5957C80.8058 76.525 81.0739 76.5069 81.3375 76.5425C81.6012 76.5782 81.8548 76.6669 82.0833 76.8032C82.3118 76.9395 82.5103 77.1206 82.6668 77.3357Z" fill="#263238"/>
<path d="M99.8396 66.8947C100.135 67.3469 100.244 67.8965 100.142 68.4272C100.04 68.9579 99.7355 69.4281 99.2931 69.7384C99.0833 69.902 98.8429 70.022 98.5861 70.0912C98.3293 70.1605 98.0612 70.1778 97.7976 70.1419C97.534 70.106 97.2803 70.0178 97.0513 69.8824C96.8223 69.747 96.6227 69.5672 96.4643 69.3536C96.1684 68.9013 96.06 68.3518 96.162 67.8211C96.264 67.2904 96.5684 66.8202 97.0108 66.5098C97.2206 66.3463 97.461 66.2263 97.7178 66.157C97.9746 66.0877 98.2427 66.0705 98.5063 66.1064C98.7699 66.1422 99.0236 66.2305 99.2526 66.3659C99.4816 66.5012 99.6811 66.6811 99.8396 66.8947Z" fill="#263238"/>
<path d="M97.5822 60.7498C97.5754 61.1173 95.6592 60.9881 94.0171 62.2118C92.3751 63.4354 91.8966 65.2839 91.5384 65.1777C91.3869 65.111 91.2483 64.5846 91.441 63.7562C91.6955 62.6897 92.3204 61.7482 93.2043 61.0994C94.0882 60.4506 95.1738 60.1367 96.2675 60.2136C97.1148 60.2854 97.5985 60.576 97.5822 60.7498Z" fill="#263238"/>
<path d="M81.6481 72.019C81.5662 72.4396 79.3774 72.1471 77.2711 73.4075C75.1648 74.6679 74.3107 76.704 73.9156 76.5644C73.7352 76.4849 73.6772 75.8734 74.0345 74.9452C74.5284 73.7436 75.4018 72.7366 76.5215 72.0777C77.6311 71.4225 78.9279 71.1569 80.2057 71.3231C81.2053 71.4792 81.6884 71.8299 81.6481 72.019Z" fill="#263238"/>
<path d="M100.358 90.2579C100.358 90.2579 100.344 90.5622 100.04 90.9794C99.5767 91.5848 98.9373 92.0316 98.2096 92.2581C97.1438 92.6252 95.9938 92.6726 94.9013 92.3944C94.2304 92.2304 93.6204 91.8779 93.1433 91.3784C92.659 90.8335 92.3051 90.1856 92.1085 89.4836C91.9152 88.8092 91.8021 88.1145 91.7713 87.4136C91.7422 87.2099 91.7575 87.0023 91.8162 86.8051C91.8748 86.6078 91.9754 86.4257 92.1111 86.2709C92.4049 86.0277 92.7696 85.8861 93.1506 85.8674L96.3193 85.4025C97.2993 85.2216 98.2961 85.1495 99.2919 85.1874C98.3562 85.5305 97.3848 85.7673 96.3961 85.8931C95.4457 86.0946 94.3712 86.2846 93.2518 86.4979C92.5925 86.5864 92.3681 86.7633 92.4206 87.4067C92.4603 88.0599 92.571 88.7067 92.7509 89.3359C92.8821 89.9255 93.167 90.47 93.5768 90.9138C93.9865 91.3577 94.5065 91.6852 95.0838 91.863C96.069 92.1276 97.1066 92.127 98.0915 91.8615C98.7617 91.6879 99.3735 91.3389 99.8639 90.8503C100.185 90.4922 100.31 90.2284 100.358 90.2579Z" fill="#263238"/>
<path d="M64.5625 172.4C64.5625 172.4 66.2084 169.681 69.4316 163.516C72.6548 157.351 89.1212 131.414 89.1212 131.414C89.1212 131.414 107.612 136.612 111.519 122.395C114.366 112.04 111.597 106.442 111.597 106.442C111.597 106.442 133.727 89.5445 142.607 88.3405C142.607 88.3405 199.308 173.883 193.259 160.078L193.065 174.049L64.5625 172.4Z" fill="#F5CFD0"/>
<path d="M89.3574 141.154L89.591 141.585C89.9152 142.258 90.1441 142.973 90.2711 143.708C90.301 144.058 90.3556 144.404 90.4343 144.746C90.5386 144.951 90.6604 145.146 90.7981 145.331C91.4996 146.602 91.5147 148.196 91.6607 149.603C91.7866 151.184 91.9883 152.885 92.9741 154.14C93.9599 155.395 95.9718 155.998 97.1734 154.948C97.169 155.456 97.3504 155.949 97.6834 156.333C98.0164 156.718 98.4782 156.968 98.9822 157.036C99.4896 157.085 100.001 157.005 100.469 156.801C100.936 156.597 101.344 156.278 101.654 155.873C102.267 155.052 102.646 154.08 102.75 153.061C102.834 153.653 103.145 154.189 103.617 154.555C104.089 154.922 104.685 155.09 105.279 155.026C105.871 154.934 106.43 154.693 106.903 154.325C107.376 153.958 107.747 153.476 107.982 152.925C108.445 151.82 108.658 150.627 108.607 149.431C108.59 147.889 108.66 146.348 108.817 144.814C108.817 144.814 110.339 144.852 111.024 144.87C111.954 144.893 111.229 144.875 111.229 144.875C111.736 144.055 112.122 143.167 112.376 142.238C113.106 140.182 113.692 138.856 114.219 137C114.617 135.614 114.825 134.247 113.906 133.474C111.697 131.613 108.315 136.275 108.315 136.275C107.561 134.86 103.083 135.126 102.424 137.184C101.945 136.147 102.016 135.502 101.054 134.87C100.583 134.544 100.041 134.334 99.4726 134.257C98.9045 134.18 98.3262 134.237 97.7845 134.425C97.2513 134.635 96.8016 135.013 96.5044 135.503C96.2071 135.993 96.0787 136.567 96.1389 137.136C95.5785 136.451 94.8238 135.952 93.9741 135.704C93.1244 135.456 92.2195 135.471 91.3785 135.747C90.373 136.112 89.5376 136.835 89.0322 137.778C88.781 138.245 88.6159 138.754 88.5449 139.28C88.5045 139.477 88.4994 139.68 88.5298 139.879C88.555 139.968 88.5956 140.051 88.6498 140.126C88.8223 140.478 89.1222 140.785 89.3574 141.154Z" fill="#FFBF9D"/>
<path d="M84.2743 138.809C83.7796 138.811 83.2913 138.919 82.8424 139.127C82.3935 139.335 81.9946 139.637 81.6728 140.013C80.9944 140.958 81.0296 142.694 81.253 143.843C82.6385 143.949 83.3418 143.896 84.7267 144.025C85.0183 144.033 85.2491 143.952 85.5137 144.093C86.1905 144.464 86.2551 145.973 86.5923 146.675C86.926 147.257 87.4695 147.688 88.1113 147.882C88.7532 148.076 89.4447 148.016 90.0443 147.716C90.6281 147.384 91.1045 146.891 91.4172 146.297C91.7299 145.702 91.8658 145.031 91.8087 144.361C91.672 143.014 91.0368 141.766 90.0275 140.862C89.2611 140.143 88.3547 139.589 87.3648 139.236C86.375 138.883 85.3229 138.737 84.2743 138.809Z" fill="#FFBF9D"/>
<path d="M96.0694 136.749C96.1798 136.751 96.5194 140.806 96.8189 145.83C97.1183 150.853 97.2759 154.935 97.1575 154.94C97.039 154.945 96.7075 150.882 96.408 145.859C96.1086 140.835 95.951 136.753 96.0694 136.749Z" fill="#FF9A6C"/>
<path d="M102.4 136.907C102.617 137.684 102.755 138.48 102.814 139.284C103.052 141.219 103.193 143.166 103.235 145.115C103.295 147.404 103.22 149.468 103.087 150.964C103.071 151.774 102.972 152.58 102.79 153.37C102.731 152.564 102.733 151.754 102.796 150.948C102.834 149.459 102.885 147.401 102.801 145.128C102.716 142.854 102.618 140.801 102.505 139.316C102.414 138.516 102.379 137.712 102.4 136.907Z" fill="#FF9A6C"/>
<path d="M108.587 137.063C108.754 137.713 108.843 138.379 108.852 139.05C108.948 140.282 108.999 141.987 108.975 143.872C108.952 145.756 108.885 147.458 108.854 148.688C108.868 149.358 108.814 150.028 108.694 150.687C108.58 150.027 108.536 149.357 108.562 148.688C108.538 147.449 108.558 145.746 108.573 143.869C108.589 141.993 108.592 140.289 108.568 139.058C108.519 138.394 108.525 137.727 108.587 137.063Z" fill="#FF9A6C"/>
<path d="M86.2985 139.23C86.8255 139.09 87.3856 139.149 87.8718 139.396C89.0465 139.902 89.9925 140.825 90.5276 141.987C90.8353 142.599 91.0834 143.239 91.2682 143.898C91.4429 144.434 91.5586 144.987 91.6132 145.548C91.6479 145.946 91.5461 146.344 91.3245 146.676C91.1611 146.901 91.0097 146.96 90.9944 146.944C91.2707 146.543 91.3897 146.055 91.3286 145.572C91.2312 145.032 91.0889 144.501 90.9032 143.984C90.7045 143.352 90.4563 142.736 90.1609 142.143C89.6608 141.059 88.8109 140.173 87.7476 139.63C87.2769 139.455 86.7921 139.322 86.2985 139.23Z" fill="#FF9A6C"/>
<path d="M139.722 89.7677C140.35 89.5548 144.31 86.3971 161.506 90.0557C177.126 93.3828 192.638 106.613 192.638 106.613L168.97 131.619L139.722 89.7677Z" fill="#F5CFD0"/>
<path d="M151.688 103.424C151.827 103.545 151.953 103.681 152.064 103.828L153.059 105.028C153.908 106.091 155.123 107.636 156.589 109.573C159.52 113.441 163.493 118.841 167.822 124.842C172.151 130.842 176.027 136.327 178.846 140.302L182.118 145.022L182.993 146.321C183.105 146.464 183.199 146.62 183.273 146.786C183.146 146.657 183.03 146.517 182.928 146.367L181.99 145.113L178.613 140.469L167.524 125.086C163.195 119.078 159.262 113.655 156.387 109.75L152.962 105.128L152.031 103.882C151.903 103.74 151.788 103.587 151.688 103.424Z" fill="#263238"/>
<path d="M155.388 237.249C155.388 237.249 151.173 239.904 151.083 234.373C150.994 228.842 156.281 201.796 161.116 192.705L166.379 184.777L183.421 193.937L182.916 213.989C182.858 216.291 178.755 222.631 176.178 216.58C176.178 216.58 171.882 222.458 168.569 216.846C168.569 216.846 165.235 221.14 160.976 216.426L155.388 237.249Z" fill="#FFBF9D"/>
<path d="M162.865 191.132L187.962 146.019L171.983 128.454L190.91 108.48C190.91 108.48 214.188 129.335 215.966 141.124C217.743 152.913 179.839 197.696 179.839 197.696L162.865 191.132Z" fill="#FFBF9D"/>
</svg>
