<svg width="1281" height="522" viewBox="0 0 1281 522" fill="none" xmlns="http://www.w3.org/2000/svg">
<mask id="mask0_457_4313" style="mask-type:alpha" maskUnits="userSpaceOnUse" x="-1" y="105" width="1282" height="417">
<path d="M5.75017 398.058C55.3484 423.839 164.066 448.59 282.477 401.886C430.491 343.505 233.824 194.656 443.543 187.963C653.261 181.27 688.019 347.858 855.95 163.793C1023.88 -20.2727 1129.31 300.175 1279.28 233.243" stroke="#FB5F65" stroke-opacity="0.13"/>
<path d="M6.47687 431.527C56.0908 453.69 181.45 483.195 299.898 443.046C447.959 392.859 268.952 221.032 478.737 215.278C688.522 209.524 704.477 376.453 872.461 218.221C1040.45 59.9886 1129.99 340.26 1280.01 282.721" stroke="#FB5F65" stroke-opacity="0.13"/>
<path d="M2.74435 466.186C52.2116 488.349 205.73 515.974 323.828 475.825C471.45 425.637 301.267 271.255 510.431 265.501C719.596 259.747 717.325 418.122 884.813 259.889C1052.3 101.655 1126.7 384.167 1276.27 326.628" stroke="#FB5F65" stroke-opacity="0.13"/>
<path d="M0.00556998 502.388C49.9584 520.249 235.974 533.742 355.231 501.385C504.303 460.939 339.545 307.477 550.763 302.84C761.981 298.202 729.36 447.039 898.491 319.518C1067.62 191.997 1126.23 422.05 1277.27 375.679" stroke="#FB5F65" stroke-opacity="0.13"/>
</mask>
<g mask="url(#mask0_457_4313)">
<rect x="3.79297" y="100.504" width="1277.26" height="426.68" fill="url(#paint0_linear_457_4313)"/>
</g>
<path d="M266.001 363.406L216.053 390.408L234.28 424.084L284.228 397.081L266.001 363.406Z" fill="#FB5F65" fill-opacity="0.16"/>
<path d="M266.396 363.726C266.412 363.732 266.335 363.973 266.173 364.425C265.989 364.922 265.746 365.578 265.442 366.396C264.766 368.152 263.822 370.605 262.663 373.616C260.25 379.743 256.948 388.13 253.29 397.419L253.213 397.615L253.004 397.578C252.845 397.55 252.674 397.519 252.502 397.487C242.56 395.666 233.563 394.018 226.985 392.813C223.766 392.198 221.142 391.697 219.264 391.338C218.393 391.161 217.696 391.019 217.169 390.911C216.691 390.808 216.442 390.745 216.444 390.728C216.448 390.711 216.703 390.739 217.187 390.809C217.719 390.892 218.421 391.003 219.299 391.14C221.185 391.46 223.818 391.906 227.05 392.453C233.635 393.62 242.641 395.216 252.593 396.979C252.765 397.01 252.937 397.041 253.096 397.07L252.811 397.228C256.524 387.96 259.877 379.593 262.326 373.481C263.549 370.495 264.545 368.063 265.258 366.322C265.599 365.518 265.871 364.875 266.078 364.386C266.271 363.947 266.38 363.72 266.396 363.726Z" fill="white"/>
<path d="M234.672 424.406C234.533 424.377 235.79 417.73 237.481 409.561C239.172 401.39 240.656 394.791 240.796 394.82C240.935 394.849 239.678 401.495 237.986 409.666C236.296 417.835 234.811 424.435 234.672 424.406Z" fill="white"/>
<path d="M257.169 385.423C257.226 385.293 263.418 387.869 270.997 391.177C278.579 394.486 284.678 397.273 284.621 397.404C284.564 397.534 278.373 394.959 270.791 391.65C263.212 388.342 257.112 385.554 257.169 385.423Z" fill="white"/>
<path d="M995.999 13.4058L946.051 40.4083L964.278 74.0841L1014.23 47.0816L995.999 13.4058Z" fill="#FB5F65" fill-opacity="0.16"/>
<path d="M996.394 13.7259C996.41 13.7325 996.333 13.9731 996.171 14.4256C995.987 14.9223 995.744 15.5776 995.44 16.3961C994.764 18.1522 993.82 20.6049 992.661 23.6157C990.248 29.743 986.946 38.13 983.288 47.4196L983.211 47.6156L983.002 47.5782C982.843 47.5497 982.672 47.5186 982.5 47.4876C972.558 45.6661 963.561 44.0184 956.983 42.813C953.764 42.198 951.14 41.697 949.262 41.3381C948.391 41.161 947.695 41.019 947.167 40.9113C946.689 40.8081 946.44 40.7456 946.442 40.7279C946.446 40.7106 946.701 40.7389 947.185 40.8091C947.717 40.8925 948.419 41.0028 949.297 41.1402C951.183 41.4597 953.816 41.906 957.048 42.4535C963.633 43.62 972.639 45.2162 982.591 46.9792C982.763 47.0102 982.935 47.0412 983.094 47.0698L982.809 47.2281C986.522 37.9606 989.875 29.5936 992.324 23.4809C993.547 20.4952 994.543 18.0634 995.256 16.3219C995.597 15.5181 995.869 14.8747 996.076 14.3865C996.269 13.9474 996.378 13.7197 996.394 13.7259Z" fill="white"/>
<path d="M964.67 74.4061C964.531 74.3774 965.788 67.7301 967.479 59.5615C969.17 51.3898 970.654 44.7911 970.794 44.8202C970.933 44.8489 969.676 51.4947 967.984 59.6664C966.294 67.835 964.809 74.4353 964.67 74.4061Z" fill="white"/>
<path d="M987.169 35.4236C987.226 35.2934 993.418 37.8694 1001 41.1772C1008.58 44.4862 1014.68 47.2734 1014.62 47.4039C1014.56 47.5341 1008.37 44.9587 1000.79 41.6498C993.212 38.342 987.112 35.5541 987.169 35.4236Z" fill="white"/>
<path d="M247.85 78.9617L289.612 89.5954L283.353 118.235L240.292 106.52L247.85 78.9617Z" fill="#FFC7C9" fill-opacity="0.6"/>
<path d="M247.89 78.9894L271.814 68.1925C272.305 67.9724 272.858 67.9281 273.378 68.067C273.898 68.206 274.355 68.5197 274.671 68.9556L289.655 89.6144" fill="#E08A8E" fill-opacity="0.6"/>
<path d="M240.292 106.52C240.239 106.5 244.544 103.695 249.879 100.34C255.214 96.9851 259.568 94.3196 259.604 94.384C259.64 94.4484 255.351 97.2094 250.017 100.564C244.682 103.919 240.328 106.585 240.292 106.52Z" fill="#A65D60" fill-opacity="0.31"/>
<path d="M283.352 118.24C283.282 118.264 280.976 113.845 278.184 108.36C275.392 102.875 273.2 98.3673 273.245 98.3841C273.289 98.401 275.621 102.78 278.413 108.265C281.204 113.75 283.417 118.204 283.352 118.24Z" fill="#A65D60" fill-opacity="0.31"/>
<path d="M249.547 81.0646L252.888 68.0246L289.508 77.1681L286.321 90.975L264.35 100.602L249.547 81.0646Z" fill="white" fill-opacity="0.96"/>
<path d="M249.538 81.0617L249.841 81.4097L250.654 82.4377L253.688 86.3548L264.508 100.48L264.269 100.39L286.227 90.7171L286.091 90.8881C286.698 88.2548 287.326 85.4876 287.979 82.6796C288.404 80.8171 288.829 78.9546 289.263 77.0955L289.446 77.3876L252.846 68.1611L253.043 68.0435C251.963 72.1062 251.106 75.3428 250.512 77.5964C250.213 78.6838 249.98 79.5363 249.812 80.154C249.711 80.4193 249.631 80.6315 249.62 80.8196C249.603 80.8972 249.575 80.9718 249.536 81.0407C249.556 80.9708 249.582 80.9028 249.613 80.8373L249.76 80.1848C249.908 79.5662 250.111 78.7124 250.37 77.6235C250.941 75.3509 251.751 72.0764 252.773 67.9814L252.827 67.8399L252.968 67.8937L289.605 76.9421L289.835 77.0296L289.751 77.2506C289.314 79.1086 288.886 80.97 288.467 82.8347C287.829 85.6284 287.182 88.4187 286.579 91.0432L286.535 91.1581L286.416 91.2041L264.426 100.803L264.283 100.86L264.189 100.734L253.44 86.4223L250.503 82.4613L249.744 81.4236C249.667 81.3082 249.598 81.1873 249.538 81.0617Z" fill="#A65D60" fill-opacity="0.31"/>
<path d="M282.014 82.2121C281.967 82.3359 276.393 81.0252 269.467 79.2508C262.541 77.4765 257.006 75.9578 257.047 75.8218C257.089 75.6859 262.668 77.0088 269.594 78.7831C276.52 80.5575 282.055 82.0761 282.014 82.2121Z" fill="#A65D60" fill-opacity="0.31"/>
<path d="M281.054 85.8851C281.003 86.0177 275.429 84.707 268.504 82.9326C261.578 81.1583 256.046 79.6308 256.084 79.5036C256.122 79.3765 261.708 80.6817 268.634 82.4561C275.56 84.2304 281.092 85.7579 281.054 85.8851Z" fill="#A65D60" fill-opacity="0.31"/>
<path d="M279.944 90.129C279.897 90.2528 274.303 88.9952 267.394 87.1766C260.485 85.358 254.936 83.8748 254.965 83.7442C254.995 83.6137 260.607 84.8781 267.516 86.6967C274.425 88.5152 279.973 89.9985 279.944 90.129Z" fill="#A65D60" fill-opacity="0.31"/>
<path d="M278.832 94.3598C278.781 94.4925 273.439 93.2393 266.862 91.5574C260.286 89.8755 254.976 88.4022 254.961 88.2549C254.947 88.1076 260.355 89.3754 266.94 91.0607C273.525 92.7459 278.87 94.2327 278.832 94.3598Z" fill="#A65D60" fill-opacity="0.31"/>
<path d="M273.184 96.8574C272.456 96.8199 271.735 96.6983 271.035 96.4952C269.717 96.2066 267.909 95.7718 265.917 95.2874C263.926 94.803 262.117 94.3172 260.821 93.9457C260.106 93.7915 259.412 93.5514 258.755 93.2307C259.485 93.2766 260.207 93.4022 260.91 93.6051C262.227 93.8937 264.039 94.3197 266.03 94.8041C268.022 95.2885 269.828 95.7831 271.115 96.1512C271.83 96.3058 272.524 96.5428 273.184 96.8574Z" fill="#A65D60" fill-opacity="0.31"/>
<path d="M267.51 99.2447C266.583 99.2457 265.664 99.0909 264.789 98.7868C263.878 98.6119 263.004 98.2795 262.207 97.8047C263.135 97.7894 264.057 97.9446 264.928 98.2626C265.84 98.4323 266.715 98.765 267.51 99.2447Z" fill="#A65D60" fill-opacity="0.31"/>
<path d="M334.586 111.167L338.297 124.54L358.134 119.035L354.422 105.662L334.586 111.167Z" fill="#FFC7C9" fill-opacity="0.4"/>
<path d="M354.53 105.808C354.493 105.889 354.448 105.965 354.396 106.037L353.979 106.675L352.408 109.001L347.156 116.661L347.115 116.724L347.043 116.694L346.873 116.621L338.236 112.906L335.631 111.741C335.337 111.611 335.102 111.504 334.926 111.42C334.842 111.387 334.76 111.346 334.684 111.297C334.771 111.321 334.857 111.351 334.94 111.389L335.66 111.675L338.284 112.753C340.517 113.698 343.571 114.987 346.944 116.419C347.002 116.44 347.059 116.464 347.114 116.491L347.001 116.524L352.274 108.905L353.916 106.635L354.362 106.016C354.413 105.943 354.469 105.873 354.53 105.808Z" fill="#A65D60" fill-opacity="0.71"/>
<path d="M338.401 124.682C338.351 124.659 339.336 122.411 340.596 119.663C341.857 116.914 342.895 114.697 342.96 114.722C343.025 114.747 342.023 116.989 340.764 119.741C339.506 122.494 338.447 124.707 338.401 124.682Z" fill="#A65D60" fill-opacity="0.71"/>
<path d="M349.519 112.731C349.55 112.687 351.535 114.113 353.951 115.873C356.366 117.634 358.292 119.133 358.26 119.173C358.227 119.213 356.244 117.791 353.828 116.03C351.413 114.269 349.487 112.771 349.519 112.731Z" fill="#A65D60" fill-opacity="0.71"/>
<path d="M904.394 382.034L908.105 395.407L927.942 389.902L924.231 376.529L904.394 382.034Z" fill="#FFC7C9" fill-opacity="0.4"/>
<path d="M924.343 376.675C924.306 376.755 924.261 376.832 924.209 376.904L923.792 377.542L922.22 379.868L916.968 387.528L916.928 387.591L916.855 387.561L916.685 387.488L908.049 383.773L905.443 382.608C905.149 382.478 904.914 382.371 904.739 382.286C904.654 382.253 904.573 382.212 904.496 382.164C904.584 382.187 904.669 382.218 904.752 382.256L905.472 382.541L908.096 383.62C910.329 384.565 913.383 385.854 916.756 387.285C916.814 387.307 916.871 387.331 916.926 387.358L916.814 387.39L922.087 379.772L923.729 377.502L924.175 376.883C924.226 376.81 924.282 376.74 924.343 376.675Z" fill="#A65D60" fill-opacity="0.71"/>
<path d="M908.211 395.549C908.162 395.526 909.146 393.278 910.407 390.53C911.667 387.781 912.705 385.564 912.77 385.589C912.835 385.614 911.833 387.856 910.575 390.608C909.316 393.36 908.257 395.574 908.211 395.549Z" fill="#A65D60" fill-opacity="0.71"/>
<path d="M919.328 383.598C919.358 383.554 921.344 384.98 923.759 386.74C926.175 388.501 928.101 389.999 928.068 390.039C928.036 390.08 926.052 388.658 923.637 386.897C921.222 385.136 919.295 383.638 919.328 383.598Z" fill="#A65D60" fill-opacity="0.71"/>
<defs>
<linearGradient id="paint0_linear_457_4313" x1="1027.6" y1="120.7" x2="444.59" y2="392.719" gradientUnits="userSpaceOnUse">
<stop stop-color="#DE4949" stop-opacity="0.44"/>
<stop offset="1" stop-color="#DE4949" stop-opacity="0"/>
</linearGradient>
</defs>
</svg>
