<svg width="104" height="26" viewBox="0 0 104 26" fill="none" xmlns="http://www.w3.org/2000/svg">
<path d="M92.78 17.8906L102.92 13.1583C103.022 13.1104 103.136 13.0926 103.248 13.1068C103.36 13.1211 103.466 13.1669 103.553 13.2389C103.64 13.3109 103.706 13.4061 103.741 13.5137C103.776 13.6213 103.781 13.7366 103.754 13.8465L101.065 24.7278C101.037 24.8394 100.978 24.9407 100.895 25.0197C100.812 25.0986 100.708 25.152 100.595 25.1733C100.482 25.1947 100.366 25.1832 100.26 25.1402C100.153 25.0971 100.061 25.0243 99.9952 24.9304L97.7798 21.7916C97.7527 21.7532 97.7373 21.7075 97.7359 21.6605C97.7345 21.6134 97.7468 21.5669 97.7715 21.5268L100.367 17.3208C100.378 17.3031 100.384 17.2829 100.384 17.2622C100.385 17.2416 100.38 17.221 100.371 17.2027L100.353 17.1772C100.335 17.1572 100.311 17.144 100.284 17.1397C100.257 17.1354 100.23 17.1403 100.207 17.1535L100.184 17.1693L96.5664 20.5254C96.5318 20.5572 96.4887 20.5783 96.4424 20.5858C96.3961 20.5934 96.3485 20.5871 96.3058 20.5677L92.787 18.9821C92.6824 18.9349 92.5934 18.8587 92.5307 18.7624C92.468 18.666 92.4343 18.5537 92.4336 18.4386C92.4328 18.3236 92.4651 18.2109 92.5265 18.1137C92.5879 18.0166 92.6759 17.9391 92.78 17.8906Z" fill="#FB5F66"/>
<path d="M75.7087 5.62338C74.7017 5.62338 73.9464 5.39509 73.4428 4.93848C72.9393 4.45785 72.6875 3.79698 72.6875 2.95589C72.6875 2.11477 73.0112 1.41786 73.6586 0.865136C74.33 0.288379 75.1572 0 76.1404 0C77.0276 0 77.7469 0.216284 78.2984 0.648852C78.8499 1.08142 79.1257 1.69422 79.1257 2.48726C79.1257 3.44853 78.814 4.21753 78.1907 4.7943C77.5672 5.34702 76.7399 5.62338 75.7087 5.62338Z" fill="#FB5F66"/>
<path fill-rule="evenodd" clip-rule="evenodd" d="M75.4188 24.9808C73.8602 24.9808 72.7211 24.4281 72.0018 23.3227C71.3064 22.2172 70.9587 20.7513 70.9587 18.9249C70.9587 18.5354 70.9758 18.1068 71.0101 17.6393C69.7318 18.0254 68.3458 18.2498 66.8522 18.3121C66.3965 20.3308 65.4974 21.9528 64.1546 23.1785C62.8117 24.38 61.2891 24.9808 59.5866 24.9808C58.1479 24.9808 56.913 24.6323 55.8819 23.9354C54.8749 23.2386 54.1076 22.3134 53.5801 21.1599C53.1239 20.1624 52.8649 19.0931 52.8032 17.9519C51.8413 18.2161 50.8268 18.3481 49.7595 18.3481C48.7045 18.3481 47.7094 18.204 46.7742 17.9155C46.0788 19.045 45.3115 20.2105 44.4723 21.4122C43.5131 22.7819 42.6858 23.7191 41.9904 24.2239C41.295 24.7285 40.5038 24.9808 39.6165 24.9808C38.6334 24.9808 37.854 24.5963 37.2787 23.8273C36.7623 23.1074 36.4247 21.9979 36.2655 20.4988C36.2345 20.5401 36.2022 20.5802 36.1686 20.6191C35.1376 21.8927 34.0226 22.9381 32.8236 23.7553C31.6487 24.5723 30.3059 24.9808 28.7952 24.9808C27.5723 24.9808 26.6491 24.6323 26.0257 23.9354C25.4022 23.2145 25.0906 22.1812 25.0906 20.8354C25.0906 20.1626 25.2584 18.9609 25.5941 17.2307C25.9058 15.7167 26.0617 14.6713 26.0617 14.0945C26.0617 13.71 25.9298 13.5178 25.6661 13.5178C25.3542 13.5178 24.9107 13.9263 24.3351 14.7435C23.7836 15.5364 23.2081 16.5939 22.6088 17.9155C22.0333 19.2373 21.5657 20.6312 21.206 22.0971C20.9422 23.2266 20.6305 23.9955 20.2708 24.4041C19.9351 24.7886 19.3956 24.9808 18.6522 24.9808C17.741 24.9808 17.0937 24.5003 16.71 23.539C16.5038 22.988 16.3567 22.2474 16.2687 21.3173C15.4486 22.1332 14.4019 22.8978 13.1283 23.611C11.5218 24.5243 9.7953 24.9808 7.94893 24.9808C5.43117 24.9808 3.47691 24.2959 2.08615 22.9262C0.695382 21.5563 0 19.6818 0 17.3027C0 15.6446 0.347691 14.1066 1.04307 12.6887C1.73846 11.2468 2.6976 10.1053 3.92052 9.2642C5.1674 8.42309 6.57016 8.00254 8.12877 8.00254C9.51954 8.00254 10.6345 8.42309 11.4738 9.2642C12.3131 10.0813 12.7327 11.1987 12.7327 12.6166C12.7327 14.2748 12.1332 15.7046 10.9343 16.9063C9.75933 18.0837 7.7571 19.021 4.92762 19.718C5.52709 20.8234 6.66608 21.3762 8.34459 21.3762C9.42362 21.3762 10.6465 21.0036 12.0133 20.2586C13.4041 19.4896 14.6031 18.4923 15.6101 17.2667C15.8036 17.0405 16.0133 16.8904 16.2394 16.8162C16.3953 14.458 16.816 12.193 17.5012 10.0212C17.717 9.32428 18.0648 8.81962 18.5443 8.50721C19.0478 8.17076 19.7433 8.00254 20.6305 8.00254C21.11 8.00254 21.4457 8.06262 21.6375 8.18277C21.8294 8.30294 21.9253 8.53123 21.9253 8.86767C21.9253 9.25218 21.7454 10.1173 21.3858 11.4631C21.1461 12.4243 20.9542 13.2655 20.8103 13.9864C20.6664 14.7073 20.5466 15.5965 20.4506 16.6539C21.2419 14.5872 22.1291 12.905 23.1123 11.6073C24.0955 10.3096 25.0545 9.38435 25.9897 8.83163C26.9489 8.2789 27.8241 8.00254 28.6153 8.00254C30.174 8.00254 30.9533 8.78357 30.9533 10.3456C30.9533 11.2828 30.6896 12.9771 30.1621 15.4282C29.7064 17.519 29.4786 18.9009 29.4786 19.5737C29.4786 20.535 29.8262 21.0157 30.5217 21.0157C31.0013 21.0157 31.5647 20.7272 32.2122 20.1505C32.8835 19.5498 33.7707 18.5885 34.8737 17.2667C35.1616 16.9303 35.4853 16.7621 35.845 16.7621C35.893 16.7621 35.9395 16.7655 35.9841 16.7723C35.864 14.791 35.8039 12.9852 35.8039 11.3549V10.0933C35.8279 9.30025 36.0437 8.74752 36.4514 8.43511C36.8589 8.1227 37.4705 7.96649 38.2857 7.96649C38.9092 7.96649 39.3647 8.11068 39.6525 8.39907C39.9642 8.6634 40.1201 9.12001 40.1201 9.76885C40.1201 12.5325 40.288 16.1253 40.6236 20.5471C42.0623 18.4082 43.1414 16.7019 43.8607 15.4282C43.501 14.7314 43.3213 13.9023 43.3213 12.941C43.3213 12.124 43.501 11.3309 43.8607 10.5619C44.2204 9.79289 44.712 9.16807 45.3355 8.68744C45.9588 8.20681 46.6663 7.96649 47.4576 7.96649C48.1529 7.96649 48.7164 8.21882 49.148 8.72349C49.5797 9.20412 49.7955 9.91306 49.7955 10.8503C49.7955 11.9317 49.5077 13.1693 48.9322 14.5632C49.8434 14.5151 51.0543 14.3349 52.565 14.0224L53.2963 13.8868C53.443 13.4206 53.6215 12.9732 53.8318 12.5445C54.5272 11.1026 55.4863 9.98515 56.7092 9.19211C57.9321 8.37503 59.287 7.96649 60.7735 7.96649C62.596 7.96649 64.0587 8.60333 65.1618 9.87701C66.2886 11.1266 66.9481 12.6767 67.1399 14.5271C68.2669 14.455 69.6098 14.2146 71.1684 13.8062C71.3048 13.772 71.4291 13.75 71.5414 13.74C71.7934 12.4247 72.0907 11.1851 72.4335 10.0212C72.6493 9.25218 72.937 8.72349 73.2966 8.43511C73.6563 8.14672 74.2318 8.00254 75.0232 8.00254C76.246 8.00254 76.8575 8.41108 76.8575 9.22815C76.8575 9.82894 76.6297 11.2228 76.174 13.4096C75.5987 16.0531 75.3109 17.8435 75.3109 18.7807C75.3109 19.5017 75.4068 20.0544 75.5987 20.4389C75.7905 20.8234 76.1141 21.0157 76.5698 21.0157C77.0013 21.0157 77.5409 20.7153 78.1884 20.1145C78.8292 19.5197 79.6816 18.5836 80.7454 17.3059V17.3027C80.7454 15.6446 81.0932 14.1066 81.7885 12.6887C82.4839 11.2468 83.443 10.1053 84.6659 9.2642C85.9128 8.42309 87.3155 8.00254 88.8742 8.00254C90.2649 8.00254 91.38 8.42309 92.2192 9.2642C93.0585 10.0813 93.4781 11.1987 93.4781 12.6166C93.4781 14.2748 92.8786 15.7046 91.6798 16.9063C90.5047 18.0837 88.4905 19.021 85.637 19.718C86.2125 20.8234 87.0607 21.7619 88.4425 21.9433C88.5543 21.958 88.6641 21.974 88.7735 21.9899C89.6782 22.1216 90.5599 22.2499 92.3249 21.6013C92.3624 21.5876 92.4006 21.5737 92.4395 21.5594C92.4918 21.5406 92.5455 21.5211 92.6006 21.5013C93.1649 21.2976 93.8673 21.0442 94.6251 20.6518L94.6297 20.6525L96.121 21.3319C96.3885 21.4391 96.825 21.3104 97.07 21.1281C96.9101 21.3468 96.7807 21.7328 97.07 22.1471C97.4496 22.6906 97.6349 22.9171 97.6801 22.9623L97.6837 22.9674C96.1802 23.8835 94.9477 24.1962 93.7097 24.5102C93.6245 24.5318 93.5393 24.5534 93.454 24.5753C91.7128 25.0204 90.019 25.3401 88.4425 25.3401C86.1564 25.3401 83.9226 24.2959 82.6517 22.9262C82.1993 22.43 81.8274 21.8729 81.5361 21.2548C79.3638 23.7388 77.3248 24.9808 75.4188 24.9808ZM5.25134 13.0852C5.87478 12.0519 6.63011 11.5352 7.51732 11.5352C7.94893 11.5352 8.28464 11.6794 8.52443 11.9677C8.78818 12.2321 8.92007 12.5926 8.92007 13.0492C8.92007 13.9383 8.51243 14.7194 7.69716 15.3922C6.88188 16.0651 5.76688 16.5698 4.35214 16.9063V16.8341C4.35214 15.3682 4.65186 14.1186 5.25134 13.0852ZM61.8527 20.2226C61.3012 20.8473 60.6418 21.1599 59.8744 21.1599C59.1791 21.1599 58.5675 20.8113 58.04 20.1145C57.5365 19.4176 57.2847 18.4082 57.2847 17.0864C57.2847 15.4042 57.5964 14.1066 58.2199 13.1934C58.8672 12.2561 59.6705 11.7875 60.6297 11.7875H60.8096C60.7376 12.172 60.7017 12.5565 60.7017 12.941C60.7017 13.8542 60.8935 14.7194 61.2772 15.5364C61.6849 16.3535 62.2602 17.0144 63.0036 17.519C62.8117 18.6966 62.4281 19.5977 61.8527 20.2226ZM85.9967 13.0852C86.6202 12.0519 87.3755 11.5352 88.2628 11.5352C88.6943 11.5352 89.03 11.6794 89.2698 11.9677C89.5336 12.2321 89.6654 12.5926 89.6654 13.0492C89.6654 13.9383 89.2579 14.7194 88.4425 15.3922C87.6273 16.0651 86.5123 16.5698 85.0976 16.9063V16.8341C85.0976 15.3682 85.3973 14.1186 85.9967 13.0852Z" fill="#FB5F66"/>
</svg>
