<svg width="368" height="351" viewBox="0 0 368 351" fill="none" xmlns="http://www.w3.org/2000/svg">
<path d="M275.08 63.7698L273.704 61.6006C262.075 43.3486 241.047 32.2991 218.872 33.6399C216.018 33.8065 213.181 34.1772 210.386 34.7491C190.227 38.8628 172.688 53.4012 165.423 72.0253C161.147 82.9765 159.947 95.5844 151.837 104.275C141.275 115.591 123.346 115.942 107.588 115.507C91.8307 115.072 73.887 115.444 63.3769 126.795C56.7971 133.914 54.7068 144.029 55.2367 153.549C56.6425 178.771 75.0646 201.32 98.4988 212.517C121.933 223.713 149.511 224.71 175.168 219.775C211.092 212.868 245.257 193.9 265.792 164.605C286.326 135.311 291.515 95.3879 275.08 63.7698Z" fill="#FFF6F6"/>
<path d="M117.048 84.0078C126.059 75.4133 126.059 61.4788 117.048 52.8842C108.037 44.2897 93.4279 44.2897 84.4171 52.8843C75.4063 61.4788 75.4063 75.4133 84.4171 84.0078C93.4279 92.6024 108.037 92.6024 117.048 84.0078Z" fill="#EBEBEB"/>
<path d="M338.45 335.942C338.45 336.04 269.266 336.125 184.008 336.125C98.7495 336.125 29.5508 336.04 29.5508 335.942C29.5508 335.844 98.6906 335.76 184.008 335.76C269.325 335.76 338.45 335.837 338.45 335.942Z" fill="white"/>
<path d="M213.561 247.013L243.906 335.942H238.379L202.83 247.013H213.561Z" fill="#E0E0E0"/>
<path d="M213.561 247.013H212.825H210.764L202.801 247.055L202.875 246.95C208.969 262.092 222.106 294.84 237.327 332.748C237.739 333.787 238.151 334.854 238.563 335.844L238.387 335.732H243.907L243.723 335.97C235.251 311.042 227.692 288.824 222.253 272.832C219.545 264.823 217.366 258.378 215.865 253.921C215.129 251.695 214.54 249.968 214.143 248.789L213.701 247.448C213.605 247.146 213.561 246.985 213.561 246.985C213.561 246.985 213.62 247.125 213.723 247.42L214.187 248.733C214.592 249.905 215.188 251.611 215.953 253.815C217.484 258.259 219.692 264.682 222.445 272.657C227.928 288.67 235.546 310.909 244.083 335.837L244.164 336.076H238.276L238.225 335.956C237.82 334.931 237.4 333.899 236.988 332.86C221.863 294.896 208.799 262.113 202.771 246.992V246.886H202.889L210.897 246.929H212.936C213.348 246.999 213.561 247.013 213.561 247.013Z" fill="#444444"/>
<path d="M153.843 247.013L123.498 335.942H129.018L164.574 247.013H153.843Z" fill="#E0E0E0"/>
<path d="M153.843 247.013C153.843 247.013 154.071 247.013 154.527 247.013H156.566L164.573 246.971H164.691L164.647 247.076C158.627 262.197 145.563 294.98 130.438 332.945L129.194 336.04L129.15 336.16H123.262L123.343 335.921L144.988 272.741L151.48 253.899C152.216 251.695 152.842 249.989 153.246 248.817L153.71 247.504C153.813 247.209 153.872 247.069 153.872 247.069C153.872 247.069 153.828 247.23 153.732 247.532L153.291 248.873C152.893 250.052 152.312 251.779 151.568 254.005C150.059 258.462 147.888 264.907 145.18 272.917C139.733 288.908 132.182 311.126 123.711 336.055L123.527 335.816H129.047L128.87 335.928L130.107 332.832C145.327 294.924 158.465 262.148 164.522 247.041L164.603 247.146L156.632 247.104H154.579L153.843 247.013Z" fill="#444444"/>
<path d="M203.611 248.964C203.444 249.099 203.267 249.221 203.081 249.329L201.52 250.312L195.772 253.906C190.922 256.953 184.232 261.179 176.879 265.883L158.052 277.992L152.341 281.649L150.788 282.59C150.613 282.714 150.425 282.823 150.229 282.913C150.391 282.775 150.563 282.648 150.744 282.534L152.26 281.502L157.905 277.753C162.682 274.608 169.313 270.291 176.673 265.588C184.033 260.884 190.738 256.686 195.632 253.696C198.076 252.208 200.048 251.007 201.447 250.186L203.044 249.259C203.225 249.147 203.414 249.049 203.611 248.964Z" fill="#444444"/>
<path d="M145.394 152.208C145.394 152.208 135.885 153.141 134.501 158.603C133.117 164.065 128.613 231.611 134.501 241.179C140.389 250.747 216.197 249.414 221.46 248.101C226.722 246.788 229.202 243.531 228.665 239.551C228.128 235.57 176.505 230.635 176.505 230.635L179.655 160.14C179.655 160.14 161.093 151.225 145.394 152.208Z" fill="#444444"/>
<path d="M228.709 241.257H228.481H227.804L225.205 241.32C222.946 241.376 219.678 241.404 215.637 241.397C207.541 241.397 196.391 241.13 184.093 240.288C177.947 239.86 172.096 239.319 166.789 238.743C161.483 238.168 156.713 237.536 152.724 236.939C150.722 236.658 148.926 236.357 147.344 236.104C145.762 235.851 144.4 235.619 143.289 235.402L140.735 234.932L140.072 234.805L139.852 234.749C139.927 234.74 140.004 234.74 140.08 234.749L140.749 234.84L143.318 235.24C144.429 235.423 145.791 235.641 147.381 235.865C148.971 236.09 150.766 236.385 152.761 236.644C156.757 237.213 161.527 237.796 166.826 238.371C172.125 238.947 177.976 239.459 184.122 239.888C196.413 240.73 207.564 241.018 215.637 241.102C219.671 241.144 222.939 241.151 225.205 241.144H228.488L228.709 241.257Z" fill="#455A64"/>
<path d="M217.581 283.91C217.522 283.994 205.51 275.942 190.761 265.939C176.011 255.935 164.096 247.743 164.155 247.687C164.213 247.631 176.225 255.655 190.982 265.665C205.739 275.676 217.64 283.826 217.581 283.91Z" fill="#444444"/>
<path d="M121.293 91.5619L115.221 81.3619C118.971 75.5541 120.308 68.6185 118.969 61.9183C117.63 55.218 113.712 49.2377 107.985 45.153C102.258 41.0683 95.1361 39.1745 88.0194 39.8439C80.9027 40.5133 74.3059 43.6975 69.5256 48.7705C64.7454 53.8436 62.1275 60.4387 62.1865 67.2593C62.2455 74.0799 64.9772 80.6329 69.8446 85.63C74.712 90.6271 81.363 93.707 88.4903 94.2643C95.6176 94.8216 102.706 92.8159 108.361 88.6416L121.293 91.5619Z" fill="#FFF6F6"/>
<path d="M121.293 91.5618L108.325 88.7538H108.148L108.258 88.6134L108.42 88.7678C104.434 91.7388 99.6919 93.6476 94.6791 94.2996C93.1779 94.5031 91.6606 94.5783 90.1453 94.5242C89.3652 94.4821 88.5703 94.4611 87.768 94.3979L85.3466 94.0539C78.131 92.7036 71.7254 88.7827 67.4324 83.0887C65.0482 79.948 63.3946 76.3579 62.5821 72.5587C61.7576 68.5289 61.8732 64.3754 62.9207 60.393C64.0048 56.2366 66.1115 52.3863 69.0663 49.161C72.0661 45.8504 75.8509 43.2705 80.1063 41.6356C84.188 40.0982 88.5796 39.4553 92.9568 39.7542C97.0905 40.0262 101.111 41.1622 104.733 43.0817C111.242 46.5161 116.121 52.2026 118.364 58.9679C119.247 61.8557 119.666 64.8546 119.607 67.8623C119.451 72.6598 117.971 77.3332 115.317 81.4109V81.2986L121.293 91.5548C120.895 90.9089 119.026 87.8272 115.125 81.4039V81.3547V81.2986C117.723 77.24 119.157 72.6017 119.284 67.8482C119.332 64.8789 118.905 61.9199 118.018 59.0732C115.802 52.3853 110.985 46.7608 104.556 43.3555C100.983 41.4695 97.0173 40.3574 92.9421 40.0982C88.632 39.8063 84.3082 40.4421 80.2903 41.9585C76.1026 43.5704 72.3785 46.1118 69.4269 49.3716C66.5162 52.5479 64.4422 56.3407 63.377 60.4351C62.3383 64.3541 62.2202 68.4436 63.0311 72.4112C63.8179 76.1699 65.4391 79.7244 67.7856 82.8359C72.0112 88.467 78.3278 92.3504 85.4496 93.6959L87.8416 94.0469C88.6365 94.1101 89.4167 94.1311 90.1895 94.1803C91.6869 94.2376 93.1868 94.1695 94.6717 93.9767C99.6383 93.3515 104.345 91.4896 108.317 88.5783L109.053 88.0518L108.501 88.7538L108.435 88.5853L121.293 91.5618Z" fill="#444444"/>
<path d="M85.942 63.4116H87.7526L91.6975 58.1607V54.7139C91.6975 54.7139 94.4943 54.5524 94.1705 59.0592C93.8466 63.5661 94.1705 62.4218 94.1705 62.4218C94.1705 62.4218 100.11 62.4218 100.603 62.9413C100.964 63.2923 101.126 68.9223 101.185 71.969C101.226 72.7053 101.006 73.4335 100.562 74.0368C100.118 74.6401 99.4738 75.0837 98.7337 75.2965C98.5252 75.352 98.3098 75.3803 98.0934 75.3807C96.6214 75.3807 89.0479 74.2295 89.0479 74.2295H85.9199L85.942 63.4116Z" fill="#FF888D"/>
<path d="M80.7617 62.4639L81.8804 74.2645H84.979V62.7025L80.7617 62.4639Z" fill="#FF888D"/>
<path d="M235.792 212.004C235.792 212.004 252.823 212.004 253.522 227.139C254.221 242.274 203.945 322.12 203.945 322.12L188.025 314.91L222.161 237.431L148.09 230.481L150.187 212.706L235.792 212.004Z" fill="#FFBE9D"/>
<path d="M207.31 317.515L206.816 318.589C206.816 318.589 222.42 333.892 221.021 337.416L183.404 321.27L189.55 309.547C193.973 314.426 199.699 317.22 207.31 317.515Z" fill="#455A64"/>
<g opacity="0.6">
<path d="M191.558 315.008C191.147 314.959 190.731 315.055 190.389 315.279C190.047 315.503 189.803 315.839 189.704 316.223C189.635 316.614 189.727 317.014 189.96 317.342C190.193 317.67 190.549 317.9 190.955 317.985C191.391 318.036 191.831 317.931 192.191 317.692C192.551 317.452 192.805 317.094 192.905 316.686C192.934 316.272 192.792 315.864 192.511 315.548C192.229 315.232 191.829 315.034 191.396 314.994" fill="white"/>
</g>
<g opacity="0.6">
<path d="M183.404 321.277L184.876 318.469L220.388 334.974C220.388 334.974 221.735 336.378 221.014 337.431L183.404 321.277Z" fill="white"/>
</g>
<path d="M206.897 318.743C206.809 318.912 205.852 318.603 204.689 318.778C203.527 318.954 202.688 319.48 202.548 319.34C202.408 319.2 203.166 318.301 204.586 318.111C206.007 317.922 207.015 318.596 206.897 318.743Z" fill="#444444"/>
<path d="M210.114 321.993C210.077 322.176 209.135 322.134 208.163 322.611C207.192 323.089 206.64 323.791 206.463 323.706C206.286 323.622 206.632 322.576 207.854 322.007C209.076 321.439 210.187 321.825 210.114 321.993Z" fill="#444444"/>
<path d="M210.23 327.455C210.046 327.455 210.23 326.437 211.121 325.679C212.012 324.921 213.086 324.914 213.094 325.089C213.101 325.265 212.358 325.553 211.622 326.185C210.886 326.816 210.422 327.518 210.23 327.455Z" fill="#444444"/>
<path d="M203.569 154.938L206.594 163.763L190.101 164.991L188.18 160.267L203.569 154.938Z" fill="#FFBE9D"/>
<path d="M250.401 166.514C250.718 167.118 251.542 167.216 252.175 167.532C252.765 167.854 253.247 168.328 253.569 168.899C253.89 169.469 254.037 170.115 253.993 170.762C253.887 172.055 253.439 173.301 252.69 174.384C252.46 174.824 252.125 175.206 251.711 175.5C251.502 175.639 251.253 175.713 250.997 175.713C250.742 175.713 250.493 175.639 250.283 175.5C249.798 175.114 249.857 174.398 249.96 173.801C250.35 171.562 249.842 168.733 250.394 166.521" fill="#FFBE9D"/>
<path d="M140.708 55.8723C140.568 54.8879 140.82 53.8892 141.414 53.0732C142.008 52.2571 142.901 51.6829 143.917 51.4637L162.125 40.4143C169.066 38.926 177.809 49.9825 179.053 56.6515C180.31 63.9815 180.803 71.4121 180.525 78.8347C180.025 90.2492 172.179 91.4707 172.179 91.4707L178.067 129.428L149.694 112.741L140.708 55.8723Z" fill="#FFBE9D"/>
<path d="M175.271 66.1215C175.32 66.4948 175.214 66.8714 174.976 67.1716C174.739 67.4717 174.388 67.6717 173.998 67.7291C173.614 67.7968 173.218 67.7165 172.897 67.5059C172.575 67.2953 172.355 66.9716 172.283 66.6059C172.234 66.2326 172.34 65.8559 172.578 65.5558C172.816 65.2557 173.167 65.0557 173.556 64.9983C173.94 64.9306 174.336 65.0109 174.657 65.2215C174.979 65.4321 175.2 65.7558 175.271 66.1215Z" fill="#444444"/>
<path d="M177.612 62.0219C177.465 62.1763 176.258 62.1552 174.734 62.7239C173.211 63.2925 172.202 64.0506 172.011 64.0085C171.82 63.9664 172.011 63.7628 172.475 63.4118C173.114 62.9136 173.839 62.5242 174.617 62.2605C175.359 61.9881 176.147 61.8477 176.942 61.8464C177.472 61.8323 177.686 61.9517 177.612 62.0219Z" fill="#444444"/>
<path d="M160.198 66.8163C160.244 67.1903 160.137 67.567 159.898 67.8669C159.659 68.1668 159.307 68.3665 158.917 68.4239C158.535 68.4895 158.141 68.4083 157.821 68.1979C157.501 67.9875 157.281 67.665 157.21 67.3007C157.159 66.9271 157.264 66.5495 157.502 66.2489C157.74 65.9484 158.092 65.7488 158.483 65.6931C158.867 65.6254 159.263 65.7057 159.584 65.9163C159.906 66.1269 160.126 66.4506 160.198 66.8163Z" fill="#444444"/>
<path d="M161.78 64.9631C161.559 65.0474 160.426 64.4015 158.667 64.1558C156.908 63.9101 155.531 64.1558 155.362 64.0435C155.193 63.9312 155.531 63.8118 156.098 63.6785C156.981 63.5112 157.888 63.4946 158.777 63.6293C159.639 63.7418 160.47 64.0086 161.228 64.4156C161.751 64.7034 161.92 64.928 161.78 64.9631Z" fill="#444444"/>
<path d="M168.964 74.5104C169.786 74.1558 170.651 73.9034 171.54 73.7593C171.945 73.675 172.328 73.5557 172.365 73.2749C172.352 72.8635 172.205 72.4661 171.945 72.1377C171.454 71.2017 170.925 70.2446 170.355 69.2665C168.147 65.1738 166.469 61.7902 166.675 61.7059C166.881 61.6217 168.795 64.872 171.018 68.9646L172.556 71.8569C172.876 72.3056 173.019 72.8476 172.961 73.3872C172.917 73.533 172.84 73.6674 172.734 73.7805C172.628 73.8936 172.497 73.9823 172.35 74.0401C172.127 74.1232 171.895 74.1798 171.658 74.2086C170.777 74.416 169.872 74.5174 168.964 74.5104Z" fill="#444444"/>
<path d="M172.172 91.4988C166.675 92.2741 161.06 91.5438 155.98 89.3928C155.98 89.3928 160.816 97.2833 172.445 94.9246L172.172 91.4988Z" fill="#EB996E"/>
<path d="M169.148 78.2942C168.753 77.8025 168.247 77.4016 167.667 77.1209C167.087 76.8403 166.449 76.6871 165.8 76.6726C165.424 76.6801 165.06 76.7962 164.755 77.0055C164.45 77.2149 164.219 77.5076 164.092 77.8449C163.965 78.2807 163.95 78.7394 164.049 79.1818C164.147 79.6243 164.357 80.0375 164.659 80.3862C164.956 80.7552 165.359 81.0335 165.819 81.1869C166.279 81.3403 166.776 81.3621 167.25 81.2496C168.017 80.9475 168.672 80.4312 169.126 79.7684C169.291 79.5997 169.41 79.3947 169.472 79.1717C169.499 79.031 169.493 78.8864 169.455 78.7482C169.417 78.6099 169.348 78.4813 169.251 78.3714" fill="#EB996E"/>
<path d="M164.32 76.1109C164.585 76.0618 164.791 77.7396 166.439 78.7645C168.088 79.7894 169.943 79.3963 169.987 79.6279C169.987 79.7332 169.611 80 168.817 80.1123C167.789 80.24 166.747 80.0189 165.873 79.4875C165.033 78.9731 164.437 78.1675 164.209 77.2411C164.055 76.5181 164.202 76.1109 164.32 76.1109Z" fill="#444444"/>
<path d="M162.295 58.0625C162.141 58.4837 160.507 58.3082 158.615 58.561C156.724 58.8137 155.163 59.3261 154.898 58.9541C154.781 58.7716 155.046 58.3714 155.634 57.9502C156.458 57.4318 157.394 57.0991 158.372 56.9775C159.35 56.8559 160.345 56.9484 161.28 57.2482C162.001 57.5641 162.362 57.859 162.295 58.0625Z" fill="#444444"/>
<path d="M177.7 58.5608C177.384 58.9469 175.956 58.7363 174.285 58.8978C172.615 59.0592 171.231 59.4664 170.863 59.1294C170.694 58.968 170.863 58.5889 171.459 58.1958C172.269 57.7004 173.193 57.3996 174.152 57.3189C175.111 57.2382 176.076 57.3801 176.964 57.7325C177.597 58.0343 177.833 58.3713 177.7 58.5608Z" fill="#444444"/>
<path d="M132.723 85.0473C133.017 79.9578 133.871 63.6644 137.315 54.7771C140.76 45.8897 145.61 41.9094 150.6 40.0351C152.485 39.267 154.546 38.9759 156.583 39.1898C158.62 39.4038 160.565 40.1157 162.229 41.2565C164.79 42.9835 166.277 48.6697 166.277 48.6697C166.277 48.6697 154.17 52.657 150.821 59.9017C146.942 68.1853 146.25 72.2147 146.25 72.2147L145.205 76.6303C145.205 76.6303 147.48 95.823 148.503 99.7963L132.09 114.931C132.627 109.933 132.428 90.1298 132.723 85.0473Z" fill="#444444"/>
<path d="M166.637 48.6977C166.637 48.6977 173.651 47.1884 177.191 54.5524C178.796 57.8869 180.386 67.9817 180.386 67.9817C180.386 67.9817 180.982 59.7332 180.054 55.2474C179.127 50.7616 176.073 45.286 172.054 42.5131C168.036 39.7402 164.989 38.6942 158.703 39.7472C160.596 40.1986 162.314 41.1557 163.656 42.5061C164.606 43.5661 165.077 44.5068 166.637 48.6977Z" fill="#444444"/>
<path d="M146.383 72.7624C145.956 70.2914 142.923 68.9435 140.819 70.4388C139.663 71.2531 138.883 72.7273 139.31 75.3528C140.458 82.3728 147.575 79.8035 147.553 79.6069C147.531 79.4103 146.883 75.6476 146.383 72.7624Z" fill="#FFBE9D"/>
<path d="M144.883 77.2833C144.883 77.2833 144.772 77.3886 144.573 77.515C144.287 77.6811 143.945 77.7387 143.617 77.6764C142.8 77.522 141.961 76.4409 141.718 75.1914C141.6 74.5947 141.625 73.9803 141.791 73.3942C141.821 73.165 141.91 72.9464 142.05 72.7578C142.19 72.5692 142.377 72.4165 142.594 72.3132C142.735 72.2565 142.893 72.2478 143.04 72.2887C143.187 72.3296 143.316 72.4175 143.403 72.5378C143.536 72.7203 143.506 72.8607 143.55 72.8677C143.595 72.8748 143.69 72.7273 143.55 72.4465C143.482 72.2795 143.354 72.1405 143.19 72.0534C142.963 71.9391 142.699 71.9139 142.454 71.9832C142.161 72.0855 141.901 72.2571 141.698 72.4819C141.494 72.7067 141.354 72.9772 141.291 73.2679C141.08 73.9178 141.039 74.6073 141.173 75.2756C141.445 76.6796 142.417 77.887 143.528 78.0204C143.733 78.0452 143.941 78.026 144.138 77.964C144.334 77.9021 144.513 77.799 144.662 77.6624C144.897 77.4518 144.912 77.2903 144.883 77.2833Z" fill="#EB996E"/>
<path d="M153.492 39.2629C153.492 39.3191 154.508 39.1787 156.127 39.2068C157.074 39.2245 158.013 39.3832 158.909 39.6771C159.997 40.061 160.997 40.6427 161.853 41.39C163.437 42.7402 164.672 44.4222 165.46 46.304C166.063 47.708 166.196 48.7048 166.284 48.6908C166.273 48.4657 166.239 48.2423 166.181 48.0239C165.594 45.3938 164.139 43.0123 162.03 41.2285C161.147 40.4485 160.108 39.8468 158.975 39.4595C158.055 39.1658 157.09 39.0211 156.12 39.0313C155.47 39.031 154.821 39.0709 154.177 39.1506C153.946 39.1699 153.717 39.2075 153.492 39.2629Z" fill="#455A64"/>
<path d="M140.179 78.582C140.182 78.5422 140.182 78.5024 140.179 78.4626L140.076 78.1467C140.025 77.9993 139.973 77.8238 139.907 77.6273L139.708 76.9253C139.307 75.3906 139.138 73.8091 139.208 72.2289C139.301 69.8848 139.905 67.5849 140.981 65.4756C142.357 62.9219 144.319 60.6973 146.722 58.9681C147.955 58.0604 149.246 57.2257 150.586 56.469C151.881 55.7249 153.184 55.1071 154.391 54.4191C156.502 53.1908 158.51 51.8085 160.397 50.2844C162.009 48.9857 163.253 47.8695 164.077 47.0832C164.497 46.6901 164.813 46.3812 165.026 46.1636L165.269 45.9179C165.321 45.8618 165.35 45.8337 165.343 45.8267L165.255 45.8969L164.99 46.1285L164.018 47.0341C163.157 47.7993 161.898 48.8944 160.272 50.165C158.378 51.6639 156.371 53.0272 154.266 54.2436C153.074 54.9456 151.756 55.5283 150.454 56.2794C149.1 57.0359 147.8 57.8754 146.56 58.7926C144.117 60.5384 142.123 62.7929 140.731 65.3844C139.651 67.5231 139.059 69.8559 138.994 72.2289C138.944 73.8224 139.139 75.4143 139.576 76.9533L139.796 77.6553C139.877 77.8519 139.944 78.0204 139.995 78.1678L140.128 78.4837C140.157 78.5469 140.172 78.582 140.179 78.582Z" fill="#455A64"/>
<path d="M138.154 76.1109C138.154 76.1109 138.154 76.0688 138.154 75.9986L138.11 75.6616C138.11 75.3668 137.992 74.9596 137.933 74.3769C137.76 72.7958 137.733 71.2031 137.852 69.6174C138.032 67.2689 138.527 64.9522 139.324 62.7237C140.321 60.002 141.775 57.4532 143.63 55.1772C145.54 52.928 147.77 50.9433 150.254 49.2804C152.462 47.708 154.67 46.4724 156.429 45.3633C158.188 44.2541 159.653 43.4047 160.631 42.7589C161.125 42.45 161.493 42.1902 161.743 42.0147L162.03 41.8182L162.126 41.741C162.126 41.741 162.081 41.741 162.015 41.7971L161.713 41.9726L160.573 42.6746C159.586 43.2854 158.129 44.1488 156.326 45.2018C154.523 46.2548 152.374 47.5184 150.107 49.0909C147.617 50.7557 145.387 52.7481 143.483 55.0088C141.591 57.3065 140.111 59.8873 139.103 62.6465C138.297 64.8967 137.802 67.2378 137.631 69.6104C137.529 71.2031 137.586 72.8015 137.801 74.384C137.874 74.9456 137.977 75.3738 138.029 75.6686C138.029 75.802 138.08 75.9143 138.103 75.9986C138.125 76.0828 138.147 76.1109 138.154 76.1109Z" fill="#455A64"/>
<path d="M177.449 103.145C177.449 103.145 186.936 106.824 188.754 111.534C190.572 116.244 204.365 155.142 204.365 155.142L188.357 160.997L181.056 128.986L177.449 103.145Z" fill="#455A64"/>
<path d="M128.403 213.605C128.403 213.605 226.291 209.315 232.436 210.86C238.582 212.404 242.254 215.36 243.476 222.387C244.698 229.414 263.569 322.513 263.569 322.513L246.405 327.329C246.405 327.329 222.324 274.889 221.3 266.114C220.277 257.339 216.884 239.354 216.884 239.354C216.884 239.354 179.672 239.937 152.271 239.354C124.87 238.771 128.55 214.58 128.55 214.58L128.403 213.605Z" fill="#FFBE9D"/>
<path d="M246.192 327.75L246.067 327.469C245.081 325.321 221.956 274.882 220.94 266.149C219.998 258.097 217.032 242.071 216.591 239.705C212.911 239.761 178.046 240.252 152.279 239.705C143.763 239.522 137.353 237.058 133.209 232.39C126.938 225.321 128.057 215.423 128.197 214.587L127.969 213.275H128.381C132.385 213.099 226.409 208.999 232.532 210.544C239.407 212.278 242.682 215.697 243.845 222.344C245.052 229.28 263.717 321.537 263.937 322.471L263.996 322.78L246.192 327.75ZM217.201 238.996L217.26 239.291C217.297 239.466 220.661 257.388 221.676 266.072C222.64 274.363 244.706 322.73 246.619 326.9L263.157 322.267C261.95 316.307 244.301 229.182 243.123 222.443C242.019 216.125 238.899 212.853 232.348 211.211C226.549 209.744 135.778 213.647 128.837 213.949L128.948 214.587V214.637C128.948 214.742 127.476 224.844 133.791 231.948C137.794 236.455 144.021 238.827 152.308 239.01C179.386 239.586 216.532 239.01 216.907 239.01L217.201 238.996Z" fill="#EB996E"/>
<path d="M135.012 163.25L137.478 177.796C137.478 177.796 126.769 197.15 125.562 213.787C124.988 221.692 129.742 237.88 129.742 237.88C129.742 237.88 167.455 241.832 187.798 241.327L209.503 240.421L213.33 208.08L188.968 204.724L189.336 160.653C189.336 160.653 193.752 149.049 194.091 145.616C194.871 138.371 194.547 131.043 186.959 121.65L177.45 103.145L174.278 101.741L175.786 124.156L148.451 99.3823L134.607 104.121L130.684 121.776L135.012 163.25Z" fill="#455A64"/>
<g opacity="0.3">
<path d="M182.396 210.081C180.622 210.375 167.823 210.551 166.05 210.846C165.748 210.934 165.43 210.963 165.117 210.93C164.803 210.898 164.499 210.804 164.224 210.656C164.003 210.456 163.849 210.198 163.784 209.913C163.718 209.629 163.743 209.333 163.856 209.063C164.091 208.519 164.46 208.038 164.931 207.659C168.029 204.851 172.055 203.229 175.971 201.643C177.222 201.144 178.576 200.632 179.886 200.941C180.529 201.143 181.11 201.492 181.579 201.957C182.048 202.422 182.392 202.988 182.58 203.608C182.953 204.846 183.108 206.134 183.037 207.42" fill="black"/>
</g>
<g opacity="0.3">
<path d="M136.019 173.394C140.59 172.376 143.46 168.08 145.315 163.966C147.17 159.852 148.701 155.31 152.336 152.474C155.001 150.368 158.57 149.442 160.874 146.999C161.969 145.802 162.695 144.34 162.972 142.773C163.249 141.207 163.065 139.598 162.442 138.125C161.779 136.623 160.447 135.205 158.762 135.121C156.775 135.023 155.229 136.665 154.015 138.175C148.46 145.115 143.222 152.275 138.301 159.656C135.659 163.622 133.024 168.438 134.864 172.797" fill="black"/>
</g>
<path d="M136.05 106.437C136.05 106.437 128.314 108.782 125.518 113.408C122.721 118.034 118.084 140.498 116.965 146.55C115.847 152.601 110.437 177.501 116.965 181.418C123.494 185.335 132.075 179.312 134.313 175.725C136.55 172.137 145.684 153.485 145.684 153.485L137.478 146.908C137.478 146.908 138.95 129.119 138.412 125.377C137.875 121.636 136.05 106.437 136.05 106.437Z" fill="#FFBE9D"/>
<path d="M111.791 152.622L129.742 153.738L137.941 144.556L140.208 130.095L139.604 102.429C139.604 102.429 123.582 106.157 120.115 117.775C117.547 126.36 111.791 152.622 111.791 152.622Z" fill="#455A64"/>
<path d="M143.557 119.902C142.527 119.768 141.21 120.927 142.085 123.721C142.821 126.051 144.205 128.319 144.102 129.617C143.999 130.916 143.469 133.619 143.469 135.023C143.405 136.395 143.265 137.764 143.05 139.122L130.832 153.162L141.408 162.064L149.777 149.526C149.777 149.526 152.301 149.926 153.766 148.326L155.974 145.918C155.974 145.918 161.641 143.917 160.485 141.004C160.485 141.004 162.164 139.48 160.64 137.037C160.64 137.037 161.435 134.496 160.279 133.001C160.279 133.001 160.176 129.596 159.227 128.993C158.277 128.389 148.459 128.291 148.459 128.291C147.925 126.734 147.308 125.204 146.612 123.706C145.537 122.015 144.993 120.084 143.557 119.902Z" fill="#FFBE9D"/>
<path d="M147.737 133.71C147.737 133.745 147.479 133.612 147.251 133.282C146.954 132.837 146.824 132.309 146.883 131.785C146.942 131.261 147.186 130.771 147.575 130.397C147.87 130.123 148.12 130.039 148.142 130.074C147.704 130.579 147.403 131.179 147.266 131.822C147.267 132.478 147.428 133.124 147.737 133.71Z" fill="#EB996E"/>
<path d="M159.867 132.748C158.387 133.16 156.864 133.416 155.326 133.513C153.801 133.725 152.256 133.774 150.719 133.661C152.231 133.41 153.757 133.239 155.289 133.148C156.806 132.932 158.334 132.798 159.867 132.748Z" fill="#EB996E"/>
<path d="M160.735 136.764C159.515 137.236 158.227 137.53 156.915 137.634C155.621 137.863 154.299 137.905 152.992 137.76C152.992 137.655 154.729 137.55 156.864 137.269C158.998 136.988 160.713 136.665 160.735 136.764Z" fill="#EB996E"/>
<path d="M160.521 140.884C158.616 141.441 156.615 141.63 154.633 141.439C155.601 141.237 156.586 141.117 157.577 141.081C158.55 140.934 159.535 140.868 160.521 140.884Z" fill="#EB996E"/>
<path d="M151.247 142.148C151.247 142.19 151.041 142.148 150.791 142.015C150.461 141.8 150.23 141.474 150.143 141.102C150.049 140.734 150.102 140.347 150.291 140.014C150.438 139.768 150.6 139.67 150.637 139.698C150.673 139.726 150.335 140.309 150.511 141.018C150.688 141.727 151.299 142.057 151.247 142.148Z" fill="#EB996E"/>
<path d="M148.835 138.807C148.835 138.842 148.592 138.722 148.364 138.42C148.071 138.022 147.902 137.552 147.878 137.066C147.848 136.578 147.96 136.092 148.202 135.662C148.4 135.339 148.592 135.198 148.629 135.226C148.404 135.807 148.279 136.419 148.261 137.038C148.355 137.652 148.548 138.249 148.835 138.807Z" fill="#EB996E"/>
<path d="M157.504 145.314C156.971 145.584 156.384 145.746 155.782 145.791C155.199 145.951 154.587 145.992 153.986 145.911C154.519 145.638 155.106 145.475 155.709 145.433C156.291 145.269 156.904 145.229 157.504 145.314Z" fill="#EB996E"/>
<path d="M152.772 128.354C152.772 128.459 151.3 128.459 149.438 128.635C147.576 128.81 146.141 129.084 146.111 128.986C147.155 128.564 148.269 128.326 149.401 128.284C150.52 128.117 151.662 128.14 152.772 128.354Z" fill="#EB996E"/>
<path d="M185.09 162.099H245.928C247.001 162.099 248.031 162.506 248.79 163.23C249.549 163.954 249.976 164.936 249.976 165.96V207.09H181.057V165.953C181.059 164.932 181.484 163.954 182.24 163.232C182.995 162.51 184.02 162.103 185.09 162.099Z" fill="#E0E0E0"/>
<path d="M249.976 210.081H169.016C169.016 209.295 169.343 208.541 169.925 207.986C170.508 207.43 171.298 207.118 172.122 207.118H249.976V210.081Z" fill="#E0E0E0"/>
<path d="M247.429 164.991H183.146V207.118H247.429V164.991Z" fill="white"/>
<path d="M247.421 207.09C247.421 207.09 247.421 206.823 247.421 206.318C247.421 205.812 247.421 205.054 247.421 204.086C247.421 202.127 247.421 199.263 247.377 195.598C247.377 188.269 247.333 177.761 247.296 164.963L247.45 165.111H183.175L183.367 164.928C183.367 179.972 183.367 194.258 183.367 207.048L183.198 206.88L229.499 206.964L242.747 207.013H246.273H247.178H247.494H247.2H246.31H242.821L229.639 207.055L183.22 207.139H183.043V207.09C183.043 194.293 183.043 180.007 183.043 164.97V164.788H183.234H247.509H247.664V164.97C247.664 177.803 247.605 188.347 247.583 195.697C247.583 199.347 247.583 202.197 247.583 204.121C247.583 205.082 247.583 205.819 247.583 206.325C247.583 206.83 247.421 207.09 247.421 207.09Z" fill="#444444"/>
<path d="M249.636 207.09C249.636 207.195 232.259 207.273 210.826 207.273C189.394 207.273 172.01 207.195 172.01 207.09C172.01 206.985 189.387 206.907 210.826 206.907C232.266 206.907 249.636 207.02 249.636 207.09Z" fill="#444444"/>
<path d="M215.28 202.169C224.609 202.169 232.171 194.956 232.171 186.058C232.171 177.16 224.609 169.947 215.28 169.947C205.951 169.947 198.389 177.16 198.389 186.058C198.389 194.956 205.951 202.169 215.28 202.169Z" fill="#FF888D"/>
<path d="M204.785 186.451L208.362 183.222L213.301 187.56L223.023 178.834L226.556 182.022L213.249 194.068L204.785 186.451Z" fill="white"/>
<path d="M143.063 139.122C143.144 139.186 138.073 145.026 131.736 152.158C125.399 159.291 120.195 165.019 120.114 164.97C120.033 164.921 125.104 159.073 131.441 151.934C137.778 144.795 142.982 139.059 143.063 139.122Z" fill="#EB996E"/>
<path d="M142.188 130.074C142.022 132.11 141.73 134.136 141.312 136.139C141.022 138.164 140.604 140.171 140.061 142.148C140.226 140.109 140.518 138.082 140.936 136.076C141.231 134.054 141.649 132.05 142.188 130.074Z" fill="#444444"/>
<path d="M189.335 160.653C189.361 160.509 189.401 160.369 189.453 160.232L189.85 159.052C190.204 158.034 190.726 156.56 191.322 154.728C192.034 152.587 192.629 150.413 193.103 148.213C193.696 145.528 193.961 142.786 193.891 140.042C193.625 135.047 192.154 130.177 189.593 125.813C188.832 124.484 187.997 123.195 187.09 121.952C186.781 121.509 186.516 121.179 186.354 120.948C186.259 120.832 186.178 120.708 186.111 120.576C186.224 120.673 186.325 120.781 186.413 120.899C186.604 121.123 186.891 121.439 187.223 121.874C188.179 123.091 189.054 124.364 189.843 125.686C191.014 127.654 191.978 129.728 192.721 131.878C193.644 134.511 194.177 137.254 194.303 140.028C194.377 142.802 194.1 145.573 193.479 148.284C192.983 150.489 192.359 152.666 191.609 154.805C190.976 156.63 190.417 158.098 190.019 159.101C189.828 159.569 189.674 159.956 189.556 160.26C189.499 160.399 189.425 160.531 189.335 160.653Z" fill="#444444"/>
<path d="M173.696 138.792C173.726 139.119 173.726 139.448 173.696 139.775C173.695 140.161 173.665 140.545 173.608 140.927C173.555 141.436 173.473 141.942 173.365 142.443C173.247 143.051 173.09 143.651 172.894 144.24C172.686 144.924 172.441 145.596 172.158 146.255C171.478 147.74 170.635 149.152 169.641 150.467C168.622 151.779 167.454 152.979 166.159 154.047C165.592 154.509 164.997 154.941 164.378 155.339C163.849 155.697 163.296 156.023 162.722 156.314C162.247 156.577 161.755 156.811 161.25 157.016C160.889 157.184 160.515 157.328 160.131 157.445C159.813 157.57 159.483 157.666 159.145 157.732C159.108 157.655 160.522 157.241 162.553 156.111C163.109 155.806 163.647 155.474 164.165 155.114C164.739 154.749 165.291 154.286 165.894 153.815C168.43 151.687 170.441 149.05 171.782 146.093C172.063 145.451 172.309 144.795 172.518 144.128C172.722 143.547 172.891 142.957 173.026 142.359C173.637 140.196 173.622 138.792 173.696 138.792Z" fill="#444444"/>
<path d="M193.928 145.174C193.887 145.135 193.852 145.09 193.825 145.04L193.568 144.612C193.325 144.226 192.994 143.699 192.574 143.047C192.155 142.394 191.5 141.593 190.815 140.681C190.131 139.768 189.262 138.771 188.342 137.655C184.559 133.247 178.973 127.455 172.57 121.271C166.167 115.086 160.153 109.695 155.745 105.827L152.742 103.264C151.859 102.52 151.093 101.86 150.453 101.355L148.981 100.168L148.606 99.8525C148.557 99.8197 148.515 99.7793 148.48 99.7332C148.533 99.7579 148.583 99.7885 148.628 99.8244C148.738 99.9016 148.871 99.9929 149.025 100.112L150.541 101.242L152.874 103.11C153.78 103.854 154.795 104.703 155.914 105.637C160.382 109.428 166.409 114.812 172.842 120.99C179.275 127.167 184.817 133.008 188.548 137.466C189.461 138.596 190.285 139.614 190.992 140.526L192.699 142.941C193.089 143.643 193.435 144.149 193.634 144.549L193.87 144.97C193.919 145.106 193.938 145.174 193.928 145.174Z" fill="#444444"/>
<path d="M179.636 177.648C179.501 177.693 179.359 177.719 179.216 177.725L178.017 177.887C176.972 178.02 175.448 178.175 173.601 178.336C169.84 178.659 164.621 178.919 158.881 178.856C153.14 178.792 147.9 178.392 144.161 177.985C142.284 177.782 140.768 177.585 139.745 177.424L138.545 177.241C138.404 177.226 138.266 177.196 138.133 177.15C138.275 177.133 138.418 177.133 138.56 177.15L139.767 177.269C140.812 177.388 142.335 177.543 144.183 177.711C147.929 178.055 153.132 178.413 158.903 178.477C164.673 178.54 169.862 178.315 173.623 178.062C175.5 177.936 177.023 177.824 178.039 177.732L179.246 177.641C179.376 177.631 179.506 177.633 179.636 177.648Z" fill="#444444"/>
<path d="M211.512 162.05C211.512 162.05 223.567 157.564 224.708 157.206C225.849 156.848 236.389 156.062 236.389 156.062L249.975 160.716C249.975 160.716 250.1 163.377 246.928 163.019C244.131 162.568 241.374 161.92 238.677 161.081L236.771 162.162L211.512 162.05Z" fill="#FFBE9D"/>
<path d="M249.32 163.756C249.637 164.366 250.461 164.458 251.094 164.78C251.68 165.107 252.159 165.581 252.48 166.151C252.801 166.721 252.95 167.364 252.912 168.01C252.806 169.301 252.358 170.545 251.609 171.625C251.38 172.061 251.047 172.441 250.638 172.734C250.428 172.873 250.179 172.947 249.924 172.947C249.669 172.947 249.42 172.873 249.21 172.734C249.009 172.501 248.874 172.222 248.817 171.925C248.76 171.628 248.784 171.321 248.886 171.035C249.276 168.796 248.768 165.96 249.32 163.749" fill="#FFBE9D"/>
<path d="M262.98 319.038L263.392 320.133C263.392 320.133 285.766 320.969 287.297 324.436L248.377 337.48L244.352 324.949C251.086 325.567 257.246 323.826 262.98 319.038Z" fill="#455A64"/>
<g opacity="0.6">
<path d="M249.754 327.574C249.419 327.81 249.186 328.154 249.101 328.543C249.015 328.931 249.083 329.336 249.29 329.68C249.525 330.014 249.886 330.249 250.298 330.334C250.709 330.419 251.14 330.348 251.498 330.137C251.853 329.888 252.099 329.523 252.187 329.112C252.276 328.701 252.201 328.273 251.977 327.911C251.696 327.595 251.298 327.395 250.866 327.352C250.434 327.308 250.002 327.426 249.658 327.68" fill="white"/>
</g>
<g opacity="0.6">
<path d="M248.378 337.479L247.414 334.468L285.068 323.067C285.068 323.067 287.062 323.208 287.276 324.471L248.378 337.479Z" fill="white"/>
</g>
<path d="M263.569 320.196C263.628 320.379 262.708 320.779 261.986 321.677C261.265 322.576 261.052 323.503 260.853 323.489C260.654 323.475 260.544 322.33 261.434 321.263C262.325 320.196 263.547 320.014 263.569 320.196Z" fill="#444444"/>
<path d="M268.242 320.435C268.353 320.596 267.639 321.179 267.278 322.162C266.917 323.145 267.028 324.022 266.836 324.078C266.645 324.135 266.145 323.145 266.623 321.93C267.101 320.716 268.176 320.266 268.242 320.435Z" fill="#444444"/>
<path d="M272.276 324.324C272.121 324.422 271.54 323.622 271.643 322.45C271.746 321.277 272.512 320.603 272.644 320.723C272.776 320.842 272.431 321.565 272.342 322.513C272.254 323.461 272.46 324.24 272.276 324.324Z" fill="#444444"/>
</svg>
